<?xml version="1.0" standalone="no"?>
<!DOCTYPE svg PUBLIC "-//W3C//DTD SVG 20010904//EN"
 "http://www.w3.org/TR/2001/REC-SVG-20010904/DTD/svg10.dtd">
<svg version="1.0" xmlns="http://www.w3.org/2000/svg"
 width="500.000000pt" height="615.000000pt" viewBox="0 0 500.000000 615.000000"
 preserveAspectRatio="xMidYMid meet">

<g transform="translate(0.000000,615.000000) scale(0.100000,-0.100000)"
fill="#000000" stroke="none">
<path d="M2710 6129 c-16 -7 -82 -8 -180 -4 -133 6 -175 4 -290 -14 -235 -38
-456 -100 -605 -170 -44 -21 -107 -48 -140 -60 -171 -64 -372 -187 -485 -297
l-75 -73 -42 11 c-35 10 -45 9 -68 -6 -31 -20 -41 -16 -26 11 20 35 41 114 41
154 0 77 -34 109 -131 122 -48 7 -115 -32 -192 -111 -57 -58 -59 -59 -105 -54
-45 4 -49 2 -93 -45 -71 -74 -206 -329 -186 -349 3 -3 13 19 22 48 26 79 117
227 172 279 67 65 142 79 94 18 -57 -74 -149 -327 -166 -458 -3 -25 -15 -102
-25 -171 -11 -69 -26 -174 -34 -235 -18 -131 -26 -449 -11 -453 6 -1 11 52 12
140 3 144 16 300 33 393 5 28 19 115 31 195 29 198 79 380 140 505 36 76 169
228 229 261 53 30 116 29 159 -4 23 -17 26 -26 26 -83 0 -77 -19 -130 -43
-122 -14 4 -14 3 -3 -5 13 -9 11 -23 -12 -93 -15 -45 -34 -96 -42 -113 -56
-119 -165 -410 -191 -511 -51 -200 -71 -489 -50 -730 3 -38 3 -63 -1 -55 -5 8
-14 16 -22 18 -11 2 -12 0 -3 -11 8 -9 8 -17 1 -24 -8 -8 -7 -13 1 -18 7 -4
16 -1 21 6 7 11 9 11 9 -2 0 -16 -39 -39 -65 -39 -8 0 -15 -5 -15 -11 0 -6 9
-8 20 -4 14 4 20 2 20 -9 0 -9 -11 -18 -25 -22 -28 -7 -34 -24 -8 -24 15 0 14
-2 -3 -15 -10 -8 -29 -15 -41 -15 -13 0 -23 -4 -23 -10 0 -13 36 -13 63 1 21
10 21 10 3 -5 -11 -9 -27 -16 -35 -16 -9 0 -25 -7 -35 -15 -20 -15 -20 -15 0
-16 11 0 6 -5 -13 -10 -44 -13 -47 -48 -4 -47 15 1 34 -2 40 -7 8 -4 24 4 42
21 16 15 29 22 29 16 0 -7 -3 -12 -7 -12 -13 -1 -66 -51 -60 -56 3 -3 15 -1
26 5 18 10 20 9 14 -6 -5 -13 -3 -15 12 -10 15 6 16 5 5 -8 -10 -12 -9 -16 6
-22 11 -5 19 -13 19 -19 0 -14 62 -84 74 -84 10 0 22 -29 18 -45 -1 -5 -10 -8
-21 -7 -11 2 -16 -1 -12 -7 4 -6 2 -11 -3 -11 -22 0 29 -39 56 -43 15 -3 4 -3
-26 -1 -114 6 -229 102 -283 236 -12 29 -34 67 -49 83 -50 54 -110 217 -139
378 -7 37 -14 66 -17 63 -6 -6 24 -165 44 -236 24 -86 70 -179 107 -221 19
-21 40 -56 47 -77 6 -22 38 -74 71 -116 79 -101 132 -130 238 -129 41 0 87 5
102 11 16 7 28 8 28 4 0 -9 -142 -78 -180 -88 -70 -18 -140 -81 -140 -126 0
-7 8 3 19 22 21 41 69 76 122 90 34 9 79 30 209 95 24 13 49 21 55 18 7 -2 18
3 25 12 14 17 46 20 55 5 3 -5 -1 -10 -9 -10 -10 0 -16 -9 -16 -26 0 -14 4
-23 8 -20 5 3 8 -18 8 -47 -1 -41 -5 -53 -19 -55 -9 -2 -17 -10 -17 -19 0 -10
6 -13 16 -9 10 4 14 1 12 -6 -3 -7 -17 -14 -32 -16 -24 -3 -27 -7 -23 -28 5
-26 -6 -37 -37 -39 -10 -1 -23 -9 -28 -18 -5 -10 -16 -17 -24 -17 -8 0 -12 -5
-9 -10 3 -6 -1 -13 -10 -17 -10 -3 -20 -1 -24 6 -6 9 -11 8 -21 -4 -17 -20
-34 -19 -26 3 4 12 1 11 -13 -5 -20 -24 -38 -32 -25 -12 4 7 2 9 -7 6 -8 -3
-31 -11 -52 -18 -28 -9 -36 -16 -32 -30 3 -9 -1 -24 -9 -32 -11 -10 -12 -17
-4 -25 7 -7 8 -15 4 -19 -7 -8 -16 1 -66 65 -27 34 -15 9 22 -45 36 -54 84
-69 169 -54 56 10 136 50 152 78 5 7 12 11 16 8 5 -2 -2 -27 -15 -54 -52 -107
-69 -273 -40 -374 44 -150 119 -209 271 -211 52 0 79 4 105 19 31 18 54 20
202 20 107 0 164 4 161 10 -2 6 3 1 11 -9 9 -11 16 -15 16 -10 0 26 -45 183
-61 216 -19 37 -23 92 -10 138 6 20 11 11 30 -55 12 -44 31 -107 42 -140 40
-126 97 -373 104 -448 4 -43 13 -90 21 -105 8 -15 14 -21 14 -14 0 6 6 12 14
12 30 0 26 45 -26 290 -17 76 -71 274 -93 338 -3 7 -1 11 4 8 5 -3 12 -18 16
-33 15 -63 107 -344 111 -340 2 2 -3 23 -11 47 -8 23 -15 44 -15 46 0 4 74 -4
130 -14 56 -10 62 -29 22 -78 -18 -21 -28 -43 -25 -54 3 -12 -2 -20 -16 -25
-11 -3 -30 -18 -41 -33 -18 -22 -23 -24 -32 -12 -8 12 -9 11 -4 -4 4 -10 9
-51 12 -90 6 -66 4 -73 -17 -92 -38 -35 -65 -38 -83 -12 -9 12 -16 35 -16 51
0 28 0 28 -37 -17 -60 -71 -111 -168 -138 -263 -32 -110 -40 -187 -27 -283 15
-115 46 -186 108 -249 46 -46 57 -64 80 -140 15 -47 29 -106 32 -131 2 -25 9
-50 14 -57 5 -7 7 -25 3 -41 -5 -26 0 -35 45 -75 44 -40 50 -50 50 -84 -1 -21
-9 -54 -18 -73 -16 -33 -20 -35 -83 -42 -63 -6 -117 -24 -106 -35 3 -2 15 1
28 7 12 7 39 10 60 7 22 -3 42 -1 45 4 3 5 10 9 15 9 6 0 1 -13 -11 -30 -17
-24 -18 -30 -7 -30 15 0 87 132 87 158 0 7 4 11 9 8 4 -3 6 -17 3 -31 -2 -14
0 -25 5 -25 5 0 10 -7 10 -15 0 -10 -6 -14 -15 -10 -10 4 -12 0 -8 -11 3 -8 6
-18 6 -22 0 -3 14 10 31 29 18 19 29 26 26 17 -3 -9 0 -19 8 -21 18 -8 25 2
25 34 0 19 6 30 20 34 11 4 18 10 16 14 -7 10 40 6 91 -8 45 -12 61 -6 128 51
30 25 241 58 375 58 145 0 481 37 590 65 117 30 219 81 296 147 57 50 58 51
104 132 65 114 74 126 96 126 12 0 27 -6 33 -14 26 -31 157 -46 197 -23 21 12
21 12 3 31 -16 16 -19 17 -19 4 0 -9 6 -19 13 -21 7 -3 4 -6 -6 -6 -11 -1 -21
8 -24 19 -3 11 -10 20 -15 20 -6 0 -8 -9 -5 -20 3 -13 0 -20 -9 -20 -8 0 -14
9 -14 20 0 11 -4 20 -10 20 -5 0 -10 -7 -10 -15 0 -8 -4 -15 -10 -15 -5 0 -10
8 -10 18 0 14 -18 24 -77 41 -43 13 -84 26 -91 28 -8 4 -10 0 -6 -11 4 -10 1
-16 -9 -16 -21 0 -14 32 9 41 18 6 18 7 1 14 -11 5 -24 1 -36 -9 -16 -15 -19
-14 -40 7 -12 14 -19 31 -16 39 4 10 -1 17 -14 21 -28 7 -28 -21 -1 -56 11
-14 20 -28 20 -31 0 -5 -43 -15 -93 -20 -34 -4 -84 35 -71 56 5 7 10 21 11 32
4 25 13 38 50 79 29 33 32 40 27 84 -4 26 -1 73 4 104 27 143 69 178 196 160
39 -5 113 -12 164 -16 113 -7 195 -32 286 -85 63 -37 96 -46 69 -19 -7 7 -8
20 -3 34 5 13 8 60 6 106 -2 69 -7 94 -30 139 -35 68 -73 110 -101 110 -25 0
-57 -20 -108 -69 l-38 -36 -20 24 c-10 13 -19 29 -19 36 0 6 -14 31 -31 55
-30 42 -32 42 -77 36 -25 -3 -60 -17 -78 -31 -18 -14 -37 -25 -43 -25 -6 0
-22 24 -35 53 -14 28 -51 83 -83 121 -32 38 -62 76 -68 85 -5 9 -24 39 -42 68
-18 28 -33 55 -33 60 0 5 28 15 63 22 34 8 91 25 127 38 36 14 81 31 100 38
19 7 46 18 60 24 24 11 24 11 -5 5 -16 -3 -44 -12 -62 -21 -19 -8 -41 -12 -54
-8 -13 5 -19 3 -15 -3 3 -5 -2 -13 -11 -16 -9 -4 -20 -1 -25 6 -7 12 -12 4 -9
-16 2 -8 -14 -6 -54 9 l-20 8 20 -17 c16 -14 17 -17 3 -12 -10 3 -20 1 -24 -5
-3 -6 -11 -8 -17 -6 -7 2 -20 0 -29 -5 -12 -5 -18 -5 -18 1 0 6 -16 10 -36 9
-28 -1 -41 4 -55 23 l-18 24 67 32 c37 18 59 31 48 28 -10 -3 -39 -10 -65 -17
-25 -6 -52 -15 -59 -21 -9 -7 -23 1 -52 31 -22 22 -48 43 -60 47 -11 3 -20 11
-20 16 0 9 12 11 85 15 75 3 140 13 200 29 33 9 74 20 90 24 28 8 73 28 140
65 17 9 36 16 43 16 19 0 26 -28 11 -48 -13 -15 -12 -16 3 -3 15 11 24 11 47
1 17 -7 36 -10 43 -7 8 3 3 9 -13 15 -44 18 -85 75 -104 147 -21 74 -16 111
26 201 17 35 26 44 40 41 11 -3 21 -1 24 3 10 16 113 40 174 40 33 0 84 -5
113 -12 29 -6 57 -11 61 -10 18 5 124 -32 152 -53 40 -30 60 -97 52 -180 -8
-80 -29 -131 -70 -168 -21 -18 -24 -24 -11 -18 34 16 72 68 86 114 19 65 16
175 -6 219 -13 26 -18 64 -20 130 -2 88 0 94 24 115 22 19 27 20 41 7 25 -22
112 -53 169 -60 77 -9 113 2 164 50 43 41 68 79 27 42 -14 -13 -21 -14 -27 -5
-4 8 -3 10 4 5 7 -4 12 -1 12 7 0 10 -7 13 -20 10 -20 -5 -29 -33 -10 -33 6 0
10 -4 10 -10 0 -18 -22 -10 -27 10 -5 19 -14 24 -40 21 -26 -4 -12 16 22 29
27 10 32 16 24 27 -12 14 -33 7 -24 -8 9 -13 -9 -11 -24 4 -11 10 -14 9 -18
-1 -4 -10 -8 -10 -20 -1 -11 10 -16 10 -22 0 -11 -18 -61 -22 -96 -8 -33 12
-75 50 -75 67 0 5 -4 10 -8 10 -4 0 -16 14 -27 32 -10 18 -29 42 -41 53 -40
37 -32 87 24 148 33 34 67 35 95 1 47 -57 68 -70 163 -103 110 -38 131 -51
150 -98 11 -25 12 -43 4 -79 -13 -55 -7 -69 9 -23 31 91 1 156 -86 188 -32 12
-77 28 -100 37 -23 8 -44 22 -47 30 -3 8 -2 13 3 9 5 -3 17 12 26 33 16 35 23
40 91 61 40 12 78 28 83 35 6 7 30 21 53 31 90 39 187 141 224 235 10 25 35
75 56 112 21 37 38 71 38 75 0 13 -77 -111 -85 -137 -26 -86 -97 -178 -172
-227 -59 -37 -63 -39 -63 -19 0 12 21 27 41 30 21 3 91 77 105 111 10 22 22
46 28 53 13 17 18 52 8 51 -15 -1 -46 -18 -34 -18 6 -1 12 -8 12 -16 0 -12 -5
-11 -30 3 -49 28 -42 33 52 37 29 1 68 30 68 51 0 6 11 32 25 55 14 24 25 58
25 76 0 17 6 34 13 36 7 3 4 6 -6 6 -10 1 -15 6 -12 12 4 6 14 8 22 5 11 -5
14 2 12 28 -2 19 0 38 4 42 4 4 7 21 7 38 0 30 0 30 -15 9 -8 -12 -16 -37 -18
-55 -2 -29 -5 -33 -30 -30 -14 2 -37 -4 -49 -12 -25 -18 -42 -21 -34 -7 4 5
-2 7 -13 4 -10 -3 -37 7 -60 21 -23 15 -46 24 -51 21 -4 -3 -11 1 -14 7 -4 7
-4 3 -2 -9 3 -15 -1 -23 -11 -23 -8 0 -11 5 -8 10 11 18 -6 50 -26 50 -14 0
-19 7 -20 28 -1 57 -8 82 -33 119 -14 20 -29 59 -32 85 -4 28 -12 48 -19 48
-7 0 -15 22 -19 58 -7 61 -29 143 -53 204 -9 20 -12 41 -9 46 3 6 2 12 -3 14
-5 1 -11 17 -13 33 -1 17 -7 33 -12 37 -6 4 -4 13 3 22 11 13 11 17 -2 22 -9
3 -13 13 -9 26 3 13 1 19 -5 15 -6 -4 -14 0 -17 9 -9 24 -7 31 4 14 8 -13 10
-12 10 3 0 9 -7 17 -16 17 -14 0 -37 43 -55 103 -5 16 -4 25 2 22 5 -4 9 -1 9
4 0 6 -6 11 -14 11 -8 0 -23 23 -34 53 -11 29 -42 100 -70 157 -27 58 -61 133
-76 166 -32 75 -34 142 -6 175 10 13 19 19 20 12 0 -6 -4 -15 -10 -18 -17 -11
-11 -37 8 -33 19 4 23 24 10 51 -7 14 -2 20 29 33 50 21 131 15 168 -14 24
-19 105 -140 85 -127 -4 3 -3 -6 3 -20 7 -14 15 -25 19 -25 4 0 4 -8 1 -17 -5
-13 -2 -15 11 -10 11 4 15 3 11 -4 -4 -6 0 -16 8 -22 18 -15 58 -117 136 -352
33 -99 74 -220 91 -270 18 -49 40 -121 50 -160 10 -38 21 -78 25 -88 5 -12 3
-16 -7 -12 -11 5 -14 -1 -10 -25 2 -16 8 -30 12 -30 5 0 6 10 3 23 -4 14 -2
19 4 12 6 -5 16 -43 22 -82 7 -40 18 -76 23 -79 18 -11 -1 129 -28 212 -13 41
-24 82 -24 92 0 10 -16 62 -36 117 -19 55 -46 134 -59 175 -12 41 -30 95 -40
120 -9 25 -28 83 -42 130 -30 105 -109 295 -138 335 -33 46 -37 55 -26 55 6 0
11 -7 11 -15 0 -8 13 -24 29 -36 16 -12 32 -33 36 -46 4 -16 11 -23 20 -19 10
3 17 -3 21 -19 3 -14 10 -25 15 -25 12 0 11 27 -1 35 -13 8 -13 45 0 45 12 0
67 -74 76 -104 4 -11 17 -37 30 -57 12 -20 29 -60 38 -89 9 -28 26 -75 40
-104 13 -28 40 -109 60 -181 20 -71 45 -159 55 -195 23 -77 64 -264 81 -369
15 -89 5 -344 -16 -423 -16 -61 -11 -78 6 -21 18 59 36 300 29 378 -8 82 -61
357 -84 432 -8 28 -19 71 -25 95 -30 145 -67 258 -133 411 -67 159 -113 232
-182 292 -50 44 -63 50 -104 51 -34 1 -61 10 -89 29 -32 21 -53 27 -99 28
-154 1 -212 -122 -135 -286 18 -38 32 -72 32 -76 0 -4 -13 -8 -29 -8 -29 0
-101 -40 -101 -56 0 -5 6 -5 13 -1 9 6 9 4 -1 -8 -18 -22 -36 -17 -75 19 -45
42 -207 152 -302 204 -44 23 -103 58 -131 76 -105 66 -230 115 -341 134 -122
20 -217 38 -288 53 -80 18 -158 19 -195 5z m290 -44 c63 -13 158 -31 210 -41
52 -9 122 -29 155 -44 80 -35 316 -168 406 -227 39 -27 88 -59 108 -72 42 -27
218 -196 195 -187 -12 5 -13 2 -3 -17 16 -31 50 -67 64 -67 6 0 21 -18 34 -40
12 -22 26 -40 31 -40 4 0 10 -12 13 -27 16 -75 25 -106 26 -88 2 36 21 -6 21
-47 0 -28 5 -38 20 -43 19 -6 28 -25 12 -25 -12 0 -12 -54 0 -130 6 -36 10
-73 10 -82 0 -10 4 -18 9 -18 5 0 7 -10 4 -22 -3 -13 1 -41 9 -63 10 -29 11
-42 3 -47 -7 -4 -11 -25 -11 -48 1 -22 -2 -40 -6 -40 -11 0 -20 -108 -11 -133
8 -22 -18 -57 -43 -57 -13 0 -30 -39 -21 -49 3 -2 5 1 5 7 0 15 22 16 37 1 12
-12 -40 -69 -64 -69 -10 0 -13 -5 -8 -17 4 -10 8 -31 9 -47 2 -24 0 -26 -9
-12 -7 9 -15 13 -18 10 -3 -3 -3 5 0 18 4 20 3 20 -16 -7 -11 -16 -21 -24 -21
-17 0 6 -9 12 -20 12 -13 0 -20 -7 -20 -20 0 -20 -16 -28 -22 -11 -1 6 -22 7
-45 4 -37 -5 -41 -8 -33 -24 6 -10 10 -24 10 -31 -1 -7 -8 1 -17 17 -48 91
-90 84 -54 -8 6 -16 11 -51 11 -78 0 -27 4 -49 8 -49 10 0 2 -142 -8 -155 -9
-11 -41 -100 -44 -122 -1 -7 -5 -16 -9 -19 -15 -15 -6 43 14 96 18 48 21 70
16 163 -3 67 -9 113 -18 123 -7 9 -15 34 -18 57 -5 33 -10 42 -26 42 -13 0
-26 12 -37 35 -10 19 -22 42 -27 50 -5 8 -26 49 -47 90 -20 41 -47 87 -60 102
-37 45 -40 69 -13 91 25 20 56 67 85 127 9 19 24 87 34 150 14 97 15 125 5
185 -39 225 -286 466 -590 578 -22 8 -87 33 -145 55 -58 22 -123 45 -145 51
-99 26 -290 44 -480 45 -197 1 -209 0 -405 -39 -65 -13 -224 -64 -305 -98 -83
-35 -229 -122 -260 -156 -9 -11 30 11 87 49 148 99 345 169 603 215 94 17 391
20 498 5 40 -6 108 -15 152 -21 108 -15 150 -25 215 -54 30 -13 99 -40 153
-60 110 -40 222 -97 311 -159 84 -58 209 -202 251 -290 50 -105 58 -170 35
-309 -19 -123 -38 -168 -95 -234 -35 -42 -62 -57 -52 -30 3 7 -7 18 -22 25
-14 7 -41 33 -59 57 -18 25 -57 63 -86 85 -62 45 -74 60 -51 60 8 0 18 8 22
18 3 9 14 36 25 60 29 63 44 181 30 242 -12 52 -44 90 -183 215 -80 72 -101
89 -156 122 -24 14 -43 28 -43 33 0 4 -15 15 -32 24 -18 9 -51 28 -73 42 -53
33 -85 46 -112 46 -13 0 -20 5 -16 11 4 7 0 8 -12 3 -11 -4 -21 -2 -26 5 -4 6
-35 13 -70 14 -35 1 -113 7 -172 14 -197 21 -431 -5 -574 -63 -35 -15 -68 -26
-74 -26 -25 0 -138 -56 -205 -102 -69 -47 -187 -158 -221 -208 -9 -14 -33 -44
-52 -66 -51 -58 -108 -175 -131 -268 -25 -100 -25 -128 1 -196 11 -30 21 -60
23 -67 3 -17 16 -29 16 -16 0 6 8 14 17 17 21 8 5 -11 -79 -97 -32 -32 -58
-62 -58 -66 0 -5 -27 -55 -60 -112 -33 -57 -60 -109 -60 -116 0 -6 -10 -28
-21 -48 l-22 -36 -17 29 c-34 55 -69 74 -127 70 -71 -6 -96 -26 -139 -113 -49
-98 -52 -164 -10 -224 16 -22 36 -41 45 -41 14 0 14 -2 1 -11 -12 -8 -11 -9 5
-5 11 3 34 8 50 12 43 10 113 60 130 94 9 17 18 30 20 30 3 0 -4 -19 -16 -42
-16 -31 -19 -46 -11 -58 6 -10 6 -23 1 -33 -5 -8 -9 -35 -9 -59 0 -24 0 -59 0
-78 -2 -123 2 -185 15 -211 8 -15 15 -35 15 -43 0 -24 63 -116 110 -161 45
-44 63 -79 84 -164 7 -31 17 -65 21 -76 8 -20 8 -20 -13 -1 -12 11 -22 25 -22
33 0 7 -7 13 -16 13 -8 0 -13 4 -10 8 8 13 -23 94 -51 130 -14 18 -35 37 -48
42 -13 5 -28 16 -33 26 -6 10 -12 13 -16 6 -8 -13 14 -64 31 -75 18 -11 16
-34 -2 -41 -9 -3 -15 0 -15 9 0 22 -37 55 -69 61 -22 5 -32 2 -40 -14 -6 -10
-7 -23 -3 -27 4 -5 1 -5 -6 -1 -7 5 -11 15 -8 23 3 8 3 20 -1 26 -4 7 -8 14
-9 17 -7 36 -20 63 -42 83 -62 58 -71 73 -76 130 -6 64 -29 115 -54 123 -54
17 -109 50 -104 63 4 11 -1 12 -21 7 -20 -5 -27 -3 -27 9 0 8 -8 16 -17 16
-17 1 -17 2 -1 6 10 2 18 12 18 21 0 23 -23 82 -32 82 -4 0 -8 10 -8 22 0 21
-1 21 -13 3 -21 -27 -40 -10 -33 30 8 40 -2 68 -20 61 -11 -4 -14 18 -15 117
-1 67 -1 138 0 157 1 19 3 91 5 160 2 69 9 145 14 170 6 25 14 61 17 80 4 19
10 37 13 40 4 3 8 20 10 38 1 19 9 46 17 62 8 16 15 37 15 47 1 25 45 95 55
85 4 -4 5 -1 1 5 -4 7 -2 21 3 30 8 14 10 15 11 3 0 -13 1 -13 10 0 13 20 13
33 0 25 -16 -10 -12 1 21 57 59 100 132 199 176 237 24 21 43 42 43 45 0 11
94 121 137 159 95 86 310 213 439 258 49 17 116 45 148 61 65 33 198 80 291
104 33 8 85 21 116 29 137 36 264 50 471 50 113 0 210 3 214 8 12 12 146 -2
274 -28z m1457 -91 c-3 -3 -12 -4 -19 -1 -8 3 -5 6 6 6 11 1 17 -2 13 -5z m64
-31 c37 -27 49 -43 30 -43 -5 0 -12 7 -15 16 -4 9 -9 14 -13 11 -8 -9 -45 12
-38 23 3 4 -1 11 -7 13 -7 3 -9 6 -5 6 5 1 26 -11 48 -26z m-2065 -273 c6 -6
24 -10 40 -9 91 4 213 -3 237 -12 l28 -12 -33 -28 c-86 -74 -315 -209 -355
-209 -10 0 -42 10 -73 21 -30 12 -73 28 -95 36 -77 28 -106 46 -93 55 8 5 1 6
-16 2 -23 -6 -27 -4 -21 7 6 11 5 11 -5 2 -12 -11 -44 -7 -36 6 2 3 -18 6 -44
6 -44 0 -55 -5 -115 -55 -61 -50 -125 -122 -183 -207 -32 -45 -21 -63 38 -62
26 1 69 -5 96 -14 27 -8 81 -21 119 -27 134 -23 126 -17 78 -59 -24 -20 -43
-42 -43 -49 0 -6 -6 -12 -14 -12 -8 0 -22 -3 -32 -7 -11 -4 -15 -3 -11 4 9 14
-19 37 -34 28 -6 -4 -4 4 5 17 9 14 13 27 10 31 -10 10 -68 -4 -81 -20 -6 -8
-20 -12 -30 -9 -14 4 -23 -6 -43 -50 -32 -71 -42 -77 -36 -22 4 39 3 41 -10
23 -8 -10 -20 -34 -26 -52 -15 -41 -26 -43 -20 -3 4 29 -10 41 -23 20 -10 -16
-25 -1 -19 18 5 14 3 14 -10 -2 -18 -23 -20 -36 -6 -36 20 0 9 -20 -20 -35
-24 -12 -30 -13 -30 -2 0 7 -6 21 -13 31 -13 18 -15 18 -35 -5 l-22 -23 0 22
c0 28 -14 28 -28 0 -10 -22 -11 -22 -11 -3 -1 12 8 38 18 58 19 37 19 38 1 32
-17 -5 -18 -3 -10 23 4 17 4 34 -1 39 -15 15 1 51 21 46 13 -3 20 4 28 26 6
17 16 31 21 31 6 0 11 9 11 19 0 11 9 23 20 26 11 4 20 12 19 18 -1 7 -1 21 0
31 1 16 4 17 13 8 19 -19 31 -14 25 10 -7 24 28 62 50 54 7 -3 13 -1 13 5 0 5
6 9 13 7 19 -5 119 96 112 114 -7 17 39 38 81 38 13 0 24 4 24 8 0 4 13 15 29
25 l28 16 -5 -27 c-5 -24 -3 -26 11 -13 9 7 15 17 12 21 -10 16 28 20 45 5 9
-9 25 -13 34 -9 25 10 19 24 -11 24 -25 1 -26 2 -9 12 13 7 24 8 36 0 21 -13
71 -4 87 16 7 8 35 17 63 20 42 4 50 2 50 -12 0 -10 5 -14 10 -11 6 4 8 10 5
15 -3 4 5 6 17 2 14 -3 19 -2 14 6 -4 7 -1 12 8 12 8 0 18 -5 21 -10 4 -6 11
-8 16 -4 5 3 17 0 26 -7 13 -12 18 -10 32 8 18 25 23 27 37 13z m456 -70 c27
-18 29 -20 8 -15 -14 4 -43 16 -65 26 -39 18 -39 19 -8 15 17 -3 46 -15 65
-26z m-47 -18 c85 -32 163 -83 182 -119 13 -25 12 -29 -9 -45 -13 -9 -87 -50
-165 -89 l-143 -73 38 -13 c20 -7 43 -13 51 -13 22 0 181 -78 181 -89 0 -5
-15 -21 -32 -34 -31 -23 -38 -24 -98 -16 -119 15 -293 24 -460 24 -159 -1
-217 -8 -390 -51 -22 -5 -20 0 18 36 24 23 41 48 39 54 -3 7 -47 21 -99 30
-51 10 -121 27 -156 38 -35 11 -77 18 -93 16 -16 -3 -32 -1 -35 3 -7 12 110
161 162 205 88 73 93 75 149 60 28 -8 93 -30 145 -50 52 -20 100 -36 105 -36
6 0 23 -7 38 -15 62 -32 91 -30 173 14 85 46 266 165 284 186 12 15 12 15 115
-23z m193 -62 c94 -55 107 -73 77 -104 -8 -8 -15 -20 -15 -27 0 -10 -3 -10
-12 0 -10 11 -10 14 0 18 17 7 15 43 -3 43 -8 0 -15 -6 -15 -12 0 -7 -10 7
-23 31 -13 28 -35 52 -57 64 -19 10 -42 26 -50 34 -19 20 -14 17 98 -47z
m1181 -16 c30 -63 20 -67 -13 -4 -14 27 -22 50 -17 50 5 0 19 -21 30 -46z
m-97 7 c18 -16 47 -40 63 -54 17 -14 27 -28 24 -31 -3 -4 -22 8 -41 26 -19 18
-50 45 -69 60 -19 15 -29 27 -22 28 6 0 26 -13 45 -29z m-3246 -21 l27 -10
-55 -58 c-29 -31 -67 -74 -83 -95 -21 -29 -30 -35 -38 -25 -6 9 -7 8 -3 -5 5
-14 -37 -97 -49 -97 -2 0 13 39 32 88 19 48 39 100 45 115 6 16 13 25 17 20
14 -22 39 -20 69 7 31 27 40 41 25 39 -5 -1 -19 2 -31 6 -18 6 -20 10 -10 16
17 11 21 11 54 -1z m3286 -76 c22 -28 21 -27 -19 6 -24 19 -43 39 -43 43 0 13
37 -16 62 -49z m-957 -32 c-6 -6 -35 18 -35 29 0 5 9 1 20 -8 11 -9 17 -19 15
-21z m-185 -3 c0 -5 5 -7 10 -4 6 3 10 0 10 -7 1 -8 5 -7 14 5 8 10 17 14 20
8 3 -5 0 -12 -6 -15 -7 -3 4 -4 24 -1 22 3 47 0 60 -7 13 -7 24 -14 26 -15 2
-1 -1 -10 -7 -21 -8 -16 -7 -21 5 -26 11 -4 18 1 21 14 4 16 8 18 19 9 16 -13
19 -39 5 -39 -5 0 -11 -8 -15 -17 -3 -10 -9 -25 -14 -33 -24 -42 -42 -83 -42
-96 0 -9 -4 -13 -9 -9 -6 3 -6 17 -1 34 7 24 5 29 -6 24 -8 -3 -14 -2 -13 3 4
21 -2 28 -11 14 -7 -10 -13 -11 -17 -5 -12 16 -53 16 -53 1 0 -8 -7 -19 -15
-26 -8 -7 -12 -16 -9 -21 3 -5 1 -9 -4 -9 -6 0 -12 6 -15 14 -8 21 -86 62
-166 86 l-73 23 123 63 c133 67 139 70 139 53z m1263 -35 c20 -40 8 -37 -23 6
-16 22 -18 30 -8 30 8 0 22 -16 31 -36z m-63 11 c6 -8 9 -18 7 -23 -3 -4 -1
-14 5 -22 8 -12 9 -11 4 4 -5 16 -4 17 8 7 17 -14 11 -41 -9 -41 -7 0 -15 9
-18 20 -3 11 -6 24 -7 28 -1 4 -6 15 -11 25 -12 21 4 23 21 2z m-940 -59 c9
-12 8 -15 -9 -13 -21 1 -26 8 -14 20 9 9 9 9 23 -7z m1013 -48 c60 -80 119
-237 85 -226 -7 3 -27 32 -44 65 -17 33 -40 73 -52 88 -12 15 -22 36 -22 45 0
10 -7 23 -15 30 -13 11 -13 15 -3 21 20 13 25 11 51 -23z m-1043 -2 c0 -2 -8
-10 -17 -17 -16 -13 -17 -12 -4 4 13 16 21 21 21 13z m-31 -45 c8 -5 9 -11 3
-15 -6 -3 -13 -24 -17 -46 -4 -22 -11 -40 -17 -40 -7 0 -8 13 -3 38 4 20 7 45
8 55 1 19 6 21 26 8z m-679 -116 c7 -8 20 -15 29 -15 14 0 14 2 1 10 -12 8
-11 10 7 10 12 0 24 -6 26 -12 4 -10 8 -10 15 1 5 7 15 10 22 6 7 -4 42 -9 79
-11 134 -7 238 -21 246 -34 3 -4 -24 -11 -60 -15 -60 -6 -65 -8 -65 -31 0 -13
5 -24 10 -24 6 0 10 -9 10 -20 0 -11 5 -20 10 -20 6 0 10 -9 10 -20 0 -21 16
-28 22 -9 2 6 29 -13 60 -42 30 -30 61 -54 67 -55 26 -2 31 -5 31 -14 0 -16
62 -70 81 -70 10 0 21 -12 28 -31 14 -40 14 -52 0 -44 -6 4 -17 -1 -24 -11
-13 -18 -14 -18 -15 -1 0 9 -4 18 -10 18 -5 1 -14 2 -19 3 -5 0 -13 4 -17 9
-12 12 -26 8 -21 -6 4 -10 -2 -13 -19 -9 -13 2 -24 10 -24 17 0 6 -9 20 -20
30 -11 10 -20 13 -20 7 0 -7 -9 -12 -20 -12 -12 0 -20 7 -20 17 0 15 -2 15
-19 -1 -15 -14 -35 -17 -100 -15 -73 3 -81 5 -75 21 3 12 0 18 -10 18 -10 0
-16 12 -18 40 -2 22 -7 39 -13 38 -5 -2 -9 -8 -9 -15 1 -9 -3 -9 -17 0 -10 6
-16 14 -13 18 2 4 -5 5 -16 2 -20 -5 -20 -7 -4 -24 9 -11 12 -19 6 -19 -6 0
-13 4 -17 10 -3 5 -14 1 -24 -9 -10 -10 -23 -20 -28 -22 -14 -6 -23 -73 -11
-90 7 -11 11 -11 15 -1 2 6 9 12 14 12 16 0 10 -26 -11 -45 -10 -9 -19 -20
-18 -24 1 -3 -2 -14 -7 -24 -6 -14 -14 -16 -44 -11 -20 4 -43 13 -53 21 -14
13 -17 12 -27 -4 -6 -10 -11 -12 -11 -5 0 17 -30 15 -30 -3 0 -8 -9 -15 -20
-15 -11 0 -20 7 -20 15 0 18 -17 20 -23 3 -3 -10 -7 -10 -19 0 -13 10 -17 10
-21 -2 -6 -16 -86 -27 -104 -14 -7 6 -14 2 -18 -12 -6 -18 -12 -20 -33 -15
-44 11 -47 11 -46 -7 2 -21 -1 -22 -27 -8 -15 8 -19 7 -19 -4 0 -9 -6 -13 -13
-10 -8 3 -20 -2 -27 -11 -15 -18 -36 -20 -44 -2 -3 8 -10 6 -22 -8 -13 -16
-15 -16 -11 -3 5 15 2 16 -19 8 -14 -6 -23 -6 -20 -1 3 4 -3 16 -13 25 -18 16
-18 20 -5 52 14 33 11 40 -18 35 -4 0 -5 6 -2 14 5 11 10 12 25 2 10 -6 20
-19 20 -27 1 -8 2 -19 4 -25 1 -5 3 -14 4 -20 1 -5 9 6 18 25 l16 35 7 -38 c9
-47 10 -48 46 -39 25 7 29 14 32 45 2 26 8 37 20 38 13 0 14 2 3 6 -8 3 -19
-1 -25 -9 -6 -8 -20 -17 -32 -20 -17 -4 -20 -2 -16 18 3 15 11 24 23 24 11 0
19 5 19 10 0 6 -10 10 -21 10 -20 0 -21 4 -16 50 4 39 2 50 -9 50 -8 0 -14 -5
-14 -11 0 -5 -4 -7 -10 -4 -5 3 -10 11 -10 16 0 6 5 7 10 4 6 -3 10 -1 10 4 0
6 7 11 15 11 11 0 12 5 5 24 -7 20 -5 27 16 40 26 17 34 69 13 82 -8 5 -8 8 0
14 7 4 -5 12 -29 20 -22 7 -40 17 -40 22 0 4 -7 8 -16 8 -14 0 -14 3 -4 15 7
8 19 15 26 15 8 0 14 5 14 11 0 6 6 9 13 6 6 -2 19 1 27 8 19 16 165 46 185
39 8 -4 15 -1 15 4 0 15 36 19 191 21 111 1 139 -2 149 -14z m499 -65 c7 -4
10 -10 5 -12 -5 -3 -22 3 -39 14 -27 18 -28 19 -5 13 14 -4 31 -11 39 -15z
m-1201 -72 c-3 -7 -21 -14 -41 -16 -24 -2 -41 -10 -47 -23 -6 -10 -21 -19 -33
-19 -49 -1 -102 -84 -67 -105 6 -3 10 -16 10 -28 0 -20 0 -20 15 -1 14 18 14
17 15 -13 0 -41 22 -35 45 13 9 19 18 34 20 34 3 0 5 -21 5 -46 0 -25 -3 -43
-7 -41 -5 3 -14 -1 -21 -9 -16 -17 0 -19 29 -3 19 10 20 8 14 -25 -6 -32 -5
-34 14 -29 12 3 21 10 21 16 0 6 3 7 7 4 3 -4 11 -3 18 3 8 7 11 -7 11 -54 0
-43 6 -72 17 -90 30 -44 13 -64 -25 -29 -20 18 -25 4 -6 -15 9 -9 9 -12 0 -12
-7 0 -30 -18 -52 -40 -22 -22 -44 -40 -48 -40 -8 0 -106 -68 -125 -87 -35 -34
-137 -148 -137 -154 0 -4 -12 -14 -26 -24 -15 -9 -23 -12 -20 -6 10 16 -5 13
-25 -5 -10 -9 -15 -22 -12 -30 7 -19 -6 -18 -30 3 -18 17 -19 17 -16 -24 2
-23 0 -45 -4 -49 -4 -4 -7 -16 -7 -26 0 -10 -4 -18 -9 -18 -5 0 -13 -9 -16
-20 -9 -27 -21 -25 -20 3 0 36 -19 35 -30 -3 -10 -35 -33 -45 -62 -27 -8 5
-15 -3 -21 -25 -4 -18 -14 -33 -21 -33 -6 0 -16 -7 -21 -15 -5 -8 -10 -10 -10
-4 0 5 7 19 15 30 8 10 14 26 15 34 0 12 -2 12 -9 1 -7 -10 -11 -9 -23 8 -19
26 -28 17 -28 -27 0 -30 -2 -33 -15 -22 -9 7 -14 18 -12 24 2 6 1 37 -3 68 -3
35 -2 59 4 61 5 2 10 23 12 46 1 24 8 55 16 69 10 20 10 26 1 29 -19 7 -15 20
7 26 23 6 27 27 5 27 -24 0 -17 20 11 30 16 6 24 16 21 24 -3 8 -3 17 1 21 4
4 7 10 7 13 0 12 28 77 39 91 6 8 11 26 11 40 0 19 5 25 18 23 13 -2 17 4 17
28 0 20 5 30 15 30 8 0 15 6 15 14 0 15 66 86 80 86 5 0 17 11 28 25 11 14 25
25 31 25 6 0 17 14 26 30 9 17 22 30 30 30 8 0 15 6 15 13 0 6 14 20 31 30 17
9 33 26 36 37 3 11 17 23 31 27 14 3 37 19 50 35 35 41 106 80 152 82 21 1 42
5 46 9 12 12 26 8 22 -5z m1264 -5 c6 -63 2 -100 -9 -96 -15 6 -17 29 -3 38 6
4 2 15 -10 27 -11 12 -20 28 -20 35 0 20 40 16 42 -4z m-1152 -9 c0 -2 -12 -4
-26 -4 -14 0 -23 4 -20 9 6 8 46 4 46 -5z m1460 -120 c0 -9 -37 15 -51 33 -10
12 -5 11 19 -6 17 -12 32 -24 32 -27z m-1680 24 c0 -22 -17 -41 -29 -34 -19
12 -13 46 9 46 11 0 20 -6 20 -12z m160 2 c0 -5 -4 -10 -10 -10 -5 0 -10 5
-10 10 0 6 5 10 10 10 6 0 10 -4 10 -10z m1671 -167 c13 -16 12 -17 -3 -4 -10
7 -18 15 -18 17 0 8 8 3 21 -13z m-707 -8 c6 -17 4 -18 -18 -9 -20 8 -21 24
-2 24 8 0 16 -7 20 -15z m-1484 -9 c0 -2 -7 -7 -16 -10 -8 -3 -12 -2 -9 4 6
10 25 14 25 6z m1370 -6 c0 -13 -11 -13 -30 0 -12 8 -11 10 8 10 12 0 22 -4
22 -10z m904 -91 c12 -23 12 -28 2 -20 -12 11 -29 51 -21 51 2 0 10 -14 19
-31z m945 -104 c11 -19 17 -35 12 -35 -6 0 -17 17 -39 63 -2 4 -1 7 1 7 3 0
14 -16 26 -35z m-865 -21 c3 -8 2 -12 -4 -9 -6 3 -10 10 -10 16 0 14 7 11 14
-7z m-250 -29 c-4 -8 -10 -15 -15 -15 -5 0 -9 7 -9 15 0 8 7 15 15 15 9 0 12
-6 9 -15z m76 -35 c0 -16 5 -32 10 -35 6 -3 10 -1 10 5 0 6 4 9 9 6 4 -3 6
-18 3 -33 -5 -26 -5 -26 -13 -5 -9 25 -29 30 -29 7 0 -8 -4 -15 -10 -15 -5 0
-10 5 -10 12 0 6 -7 19 -16 29 -20 23 -11 57 10 40 17 -14 32 2 20 21 -4 7 -3
8 4 4 7 -4 12 -20 12 -36z m1050 -27 c0 -31 -31 -92 -63 -122 l-26 -23 19 63
c11 35 22 83 26 108 l7 45 18 -23 c11 -13 19 -34 19 -48z m-848 22 c3 -14 2
-25 -2 -25 -4 0 -10 13 -12 29 -5 36 8 32 14 -4z m-2726 -50 c14 -13 32 -41
39 -61 11 -32 10 -45 -4 -83 -9 -25 -19 -48 -24 -49 -4 -2 -16 -21 -27 -42
-14 -28 -34 -45 -73 -65 -68 -33 -99 -27 -134 26 -22 33 -25 47 -20 87 10 83
65 184 111 202 44 18 104 11 132 -15z m3597 -22 c-3 -7 -1 -13 5 -13 6 0 14
-15 17 -32 4 -18 15 -42 25 -53 12 -13 17 -35 16 -65 -1 -38 -4 -45 -21 -45
-11 0 -19 -6 -17 -12 1 -7 -4 -13 -12 -13 -7 0 -19 -7 -26 -15 -15 -19 -30
-19 -30 -2 0 8 -11 40 -24 73 l-24 59 19 30 c11 17 29 52 41 78 13 31 24 44
29 36 4 -7 5 -18 2 -26z m-764 -73 c0 -10 -3 -8 -9 5 -12 27 -12 43 0 25 5 -8
9 -22 9 -30z m-1209 -5 c52 -9 104 -18 115 -19 96 -14 234 -57 275 -86 14 -10
48 -28 75 -40 28 -12 57 -26 65 -31 31 -18 225 -111 238 -113 7 -1 29 -19 50
-39 21 -20 44 -37 51 -37 6 0 10 -4 6 -9 -5 -9 45 -51 62 -51 10 0 42 -50 72
-113 15 -30 26 -77 30 -130 l8 -82 -63 -79 c-35 -43 -72 -104 -84 -135 -12
-31 -37 -90 -55 -131 -43 -99 -47 -132 -30 -215 10 -48 12 -72 4 -80 -7 -7 -8
-4 -3 9 6 16 4 18 -10 13 -9 -4 -25 -2 -35 5 -10 6 -27 8 -37 4 -11 -4 -21 -7
-24 -6 -3 1 -7 -9 -10 -22 -4 -16 -14 -24 -33 -26 -16 -2 -27 2 -27 9 0 8 -3
9 -13 0 -8 -6 -17 -8 -21 -4 -4 4 -3 -4 3 -19 8 -22 7 -26 -7 -23 -9 2 -23 4
-29 4 -7 1 -12 6 -10 13 3 18 -30 21 -36 4 -4 -9 5 -22 25 -34 16 -11 26 -22
20 -26 -5 -3 -13 1 -16 10 -4 10 -12 14 -23 10 -9 -4 -23 0 -32 7 -29 25 -51
28 -51 8 0 -25 -21 -32 -45 -15 -24 18 -35 18 -35 0 0 -15 -16 -16 -39 -2 -9
6 -17 3 -23 -8 -11 -19 -39 -21 -56 -4 -9 9 -11 5 -8 -22 l4 -35 -24 28 c-13
16 -24 23 -24 17 0 -6 -6 -18 -14 -26 -11 -10 -15 -11 -19 -1 -5 12 -37 -52
-37 -75 0 -7 -12 -44 -26 -83 -14 -38 -38 -106 -54 -151 -39 -114 -45 -123
-104 -149 -29 -13 -60 -31 -69 -39 -14 -15 -20 -14 -62 4 -28 12 -43 15 -39 7
4 -6 -5 -1 -19 12 -15 13 -24 28 -20 34 3 6 1 7 -5 3 -14 -8 -139 245 -173
349 -7 22 -17 46 -22 53 -11 14 -31 17 -22 2 4 -6 -14 -9 -47 -8 l-53 1 45 6
45 7 -48 5 c-37 3 -51 1 -58 -11 -5 -10 -8 -11 -9 -2 0 14 -70 17 -70 2 0 -5
-5 -10 -11 -10 -5 0 -7 5 -4 10 3 6 2 10 -4 10 -5 0 -16 3 -24 6 -10 3 -17 -2
-20 -13 -4 -16 -5 -16 -6 2 -1 17 -8 20 -49 19 -26 0 -51 1 -56 4 -5 3 -25 6
-45 8 -20 2 -37 7 -39 12 -1 5 -14 7 -27 4 -14 -2 -25 0 -25 4 0 5 -13 9 -29
10 -16 1 -62 18 -101 38 -53 28 -80 36 -101 32 -26 -5 -29 -2 -48 50 -12 30
-21 59 -21 64 0 6 -11 42 -24 82 -47 140 -99 353 -99 404 -1 43 8 70 52 158
76 153 171 288 216 307 5 2 9 7 8 12 -3 6 20 11 40 8 4 0 7 4 7 9 0 6 -5 10
-11 10 -5 0 -7 5 -4 10 4 6 11 8 16 4 15 -9 101 36 136 72 18 18 46 35 63 39
16 4 30 10 30 15 0 4 15 13 33 21 17 7 46 23 62 35 17 12 47 25 68 28 21 4 40
13 43 20 5 14 91 43 108 38 5 -2 13 3 17 10 7 11 9 10 9 -1 0 -9 6 -11 18 -6
9 4 33 8 52 10 19 1 55 8 79 14 118 33 212 34 371 6z m1528 -10 c14 -31 15
-46 2 -25 -7 11 -10 11 -10 2 0 -7 -4 -10 -10 -7 -12 7 -13 55 -2 55 5 0 14
-11 20 -25z m-36 -75 c-1 -30 0 -31 17 -16 10 9 21 13 24 9 9 -9 -12 -33 -30
-33 -8 0 -11 -4 -8 -10 3 -6 -1 -7 -9 -4 -9 3 -16 2 -16 -3 0 -6 -9 -20 -19
-32 -11 -13 -17 -29 -15 -36 3 -7 1 -16 -4 -19 -13 -8 -22 28 -11 45 12 20 11
35 -4 51 -8 8 -10 26 -6 48 4 19 7 28 8 19 1 -21 35 -59 51 -59 10 0 10 3 0
15 -7 9 -14 34 -16 57 l-3 41 21 -21 c13 -13 21 -33 20 -52z m-119 16 c4 -10
1 -13 -9 -9 -15 6 -19 23 -5 23 5 0 11 -7 14 -14z m511 -35 c27 -52 47 -159
28 -147 -6 3 -13 2 -17 -4 -10 -16 -28 -12 -21 6 3 8 2 12 -4 9 -15 -9 -12
-36 6 -56 15 -17 15 -18 -9 -24 -37 -10 -62 -2 -59 18 3 20 -9 22 -27 5 -12
-11 -13 -9 -7 7 6 20 6 20 -9 1 -22 -29 -19 -36 15 -36 35 0 36 -6 11 -37 -23
-27 -33 -30 -24 -6 4 10 2 14 -5 9 -11 -7 -15 17 -26 139 -3 33 -7 69 -9 80
-2 11 -2 14 0 7 8 -22 48 -10 51 16 3 19 6 21 18 11 19 -15 47 7 41 33 -10 38
23 16 47 -31z m-64 19 c0 -5 -5 -10 -11 -10 -5 0 -7 5 -4 10 3 6 8 10 11 10 2
0 4 -4 4 -10z m-133 -75 c15 -65 16 -115 2 -115 -6 0 -8 -9 -4 -21 5 -15 4
-19 -4 -15 -6 4 -11 16 -11 27 0 33 -20 21 -21 -13 0 -28 -2 -30 -9 -13 -5 11
-11 29 -15 40 -5 16 -8 17 -15 5 -6 -10 -8 -1 -4 25 l5 40 -14 -30 c-8 -16
-12 -50 -11 -75 3 -36 2 -40 -5 -20 -13 36 -13 92 0 131 16 46 27 57 40 39 8
-12 10 -11 8 5 -3 39 1 46 23 43 18 -2 25 -13 35 -53z m73 45 c0 -5 -5 -10
-11 -10 -5 0 -7 5 -4 10 3 6 8 10 11 10 2 0 4 -4 4 -10z m-421 -69 c1 -35 -5
-22 -12 24 -5 28 -4 34 3 20 5 -11 9 -31 9 -44z m61 5 c0 -39 -6 -30 -13 19
-4 27 -3 35 3 25 5 -8 10 -28 10 -44z m120 14 c0 -5 -5 -10 -11 -10 -5 0 -7 5
-4 10 3 6 8 10 11 10 2 0 4 -4 4 -10z m-3715 -100 c-3 -5 -12 -10 -18 -10 -7
0 -6 4 3 10 19 12 23 12 15 0z m-2 -50 c-3 -12 -8 -19 -11 -16 -5 6 5 36 12
36 2 0 2 -9 -1 -20z m3814 -2 c-3 -8 -6 -5 -6 6 -1 11 2 17 5 13 3 -3 4 -12 1
-19z m303 2 c0 -11 -2 -20 -4 -20 -2 0 -6 9 -9 20 -3 11 -1 20 4 20 5 0 9 -9
9 -20z m-3510 0 c0 -5 -2 -10 -4 -10 -3 0 -8 5 -11 10 -3 6 -1 10 4 10 6 0 11
-4 11 -10z m-550 -152 c22 -37 22 -38 2 -38 -25 0 -79 43 -87 70 -4 11 3 36
17 59 l23 41 11 -48 c6 -26 21 -64 34 -84z m40 128 c0 -3 -4 -8 -10 -11 -5 -3
-10 -1 -10 4 0 6 5 11 10 11 6 0 10 -2 10 -4z m500 -77 c0 -6 -4 -7 -10 -4 -5
3 -10 11 -10 16 0 6 5 7 10 4 6 -3 10 -11 10 -16z m291 -62 c-10 -9 -11 -8 -5
6 3 10 9 15 12 12 3 -3 0 -11 -7 -18z m-261 -41 c8 -35 7 -36 -24 -36 -28 1
-29 2 -13 14 9 7 17 26 17 41 0 36 9 27 20 -19z m154 18 c3 -8 2 -12 -4 -9 -6
3 -10 10 -10 16 0 14 7 11 14 -7z m99 -14 c-10 -11 -19 -20 -21 -20 -1 0 2 9
8 20 6 11 15 20 20 20 6 0 2 -9 -7 -20z m-790 -17 c-7 -2 -19 -2 -25 0 -7 3
-2 5 12 5 14 0 19 -2 13 -5z m93 0 c-4 -5 -11 -7 -14 -6 -4 1 -12 -3 -18 -8
-8 -6 -14 -4 -18 6 -4 11 2 15 26 15 17 0 28 -3 24 -7z m579 -7 c10 4 12 0 8
-16 -5 -20 -6 -20 -25 -3 -17 15 -21 15 -29 3 -8 -12 -12 -12 -16 -2 -2 6 -9
10 -14 7 -5 -4 -6 1 -3 9 4 11 13 12 35 6 17 -5 36 -7 44 -4z m-650 -35 c-4
-12 2 -21 20 -29 14 -6 25 -18 25 -26 0 -28 -17 -26 -44 5 -21 23 -26 37 -22
55 4 14 11 22 17 19 5 -4 7 -15 4 -24z m755 26 c0 -6 -31 -67 -34 -67 -5 0 0
46 7 58 7 11 27 17 27 9z m-541 -61 c1 -14 -2 -16 -12 -7 -11 9 -14 37 -7 61
3 9 19 -35 19 -54z m-55 5 c10 -1 -24 -30 -34 -31 -3 0 -6 8 -6 19 0 11 6 17
16 16 8 -2 19 -4 24 -4z m3034 -71 c1 -33 -2 -60 -7 -60 -11 0 -25 95 -16 110
14 22 21 7 23 -50z m-2650 38 c-2 -5 -8 -9 -13 -9 -5 0 -11 4 -13 9 -1 5 4 9
13 9 9 0 14 -4 13 -9z m-481 -30 c-3 -8 -6 -5 -6 6 -1 11 2 17 5 13 3 -3 4
-12 1 -19z m3204 -105 c13 -16 12 -17 -3 -4 -10 7 -18 15 -18 17 0 8 8 3 21
-13z m-2941 -3 c0 -5 -2 -10 -4 -10 -3 0 -8 5 -11 10 -3 6 -1 10 4 10 6 0 11
-4 11 -10z m-40 -14 c0 -3 -4 -8 -10 -11 -5 -3 -10 -1 -10 4 0 6 5 11 10 11 6
0 10 -2 10 -4z m3610 -76 c9 -16 8 -20 -5 -20 -8 0 -15 2 -15 4 0 2 -3 11 -6
20 -9 23 13 20 26 -4z m-26 -39 c-5 -5 -33 30 -34 43 0 4 9 -2 19 -15 11 -13
17 -26 15 -28z m-33 -2 c10 -6 8 -9 -8 -9 -17 0 -23 6 -23 23 0 16 3 18 9 8 5
-7 15 -17 22 -22z m-3541 -15 c0 -16 -6 -24 -17 -24 -11 0 -14 3 -7 8 6 4 10
17 9 29 -1 12 2 20 7 17 4 -3 8 -16 8 -30z m307 -33 c21 -20 12 -22 -32 -6
-26 9 -33 14 -18 15 17 0 20 5 16 23 -4 21 -4 21 8 2 7 -11 19 -26 26 -34z
m-322 -12 c19 -9 19 -9 -2 -5 -12 2 -24 -1 -27 -8 -2 -6 -5 -3 -5 7 -1 19 5
20 34 6z m-15 -45 c0 -2 -9 -4 -21 -4 -11 0 -18 4 -14 10 5 8 35 3 35 -6z
m250 -23 c0 -6 -4 -13 -10 -16 -5 -3 -10 1 -10 9 0 9 5 16 10 16 6 0 10 -4 10
-9z m-303 -27 c-3 -3 -12 -4 -19 -1 -8 3 -5 6 6 6 11 1 17 -2 13 -5z m49 -72
c-18 -18 -29 -12 -20 11 3 9 12 13 21 10 13 -5 13 -8 -1 -21z m-147 -30 c1 -7
-3 -10 -9 -7 -5 3 -10 18 -9 33 0 24 1 25 9 7 5 -11 9 -26 9 -33z m-56 -39 c7
-12 -13 -23 -41 -23 -15 0 -15 2 -2 10 8 5 15 17 16 27 0 10 2 29 3 43 3 21 4
19 10 -10 4 -20 10 -41 14 -47z m14 40 c-3 -10 -5 -4 -5 12 0 17 2 24 5 18 2
-7 2 -21 0 -30z m-94 10 c-10 -30 -14 -34 -24 -27 -6 4 -3 14 7 25 21 24 25
24 17 2z m33 1 c-3 -9 -6 -24 -6 -35 0 -10 -4 -19 -10 -19 -11 0 -13 30 -4 54
3 9 11 16 16 16 6 0 7 -7 4 -16z m-39 -80 c-3 -3 -12 -4 -19 -1 -8 3 -5 6 6 6
11 1 17 -2 13 -5z m788 -89 c24 -48 27 -64 23 -122 -3 -38 -1 -75 3 -83 52
-103 74 -202 48 -212 -8 -3 -59 -2 -114 2 -55 4 -90 8 -77 8 32 3 27 19 -9 26
-38 7 -54 -1 -39 -19 7 -8 7 -15 1 -19 -5 -4 -13 -2 -16 4 -5 8 -11 7 -21 -1
-11 -9 -17 -9 -29 1 -14 12 -16 10 -14 -6 2 -15 -26 -21 -48 -11 -29 13 -43 1
-18 -17 17 -12 15 -14 -19 -20 -20 -4 -41 -4 -48 0 -6 4 -26 8 -44 10 -59 4
-146 54 -170 97 -29 51 -54 111 -54 128 0 30 107 142 169 179 42 25 214 90
262 99 24 4 76 8 116 9 l71 2 27 -55z m2040 -125 c-3 -5 -12 -10 -18 -10 -7 0
-6 4 3 10 19 12 23 12 15 0z m-75 -20 c0 -5 -8 -10 -17 -10 -15 0 -16 2 -3 10
19 12 20 12 20 0z m-146 -8 c3 -5 -1 -9 -9 -9 -8 0 -12 4 -9 9 3 4 7 8 9 8 2
0 6 -4 9 -8z m-1575 -51 c9 -5 35 -12 57 -15 21 -2 63 -12 93 -21 51 -16 138
-21 369 -24 64 -1 82 -4 82 -15 0 -23 -20 -29 -39 -12 -22 20 -58 20 -102 2
-21 -9 -52 -12 -79 -9 -43 5 -48 3 -89 -38 -24 -24 -51 -43 -60 -41 -14 2 -14
1 -1 -7 8 -6 26 -11 40 -11 14 0 35 -3 47 -6 l23 -6 -30 -38 -29 -37 -67 9
c-45 6 -70 6 -77 -1 -14 -14 -30 -14 -22 -1 3 5 -21 15 -55 22 l-60 12 -15 53
c-8 29 -18 59 -21 67 -5 14 -2 14 23 1 15 -7 42 -16 58 -20 23 -4 19 -1 -15
15 -25 11 -53 23 -63 26 -28 10 -37 78 -12 96 13 10 23 10 44 -1z m438 -37
c-3 -3 -12 -4 -19 -1 -8 3 -5 6 6 6 11 1 17 -2 13 -5z m930 -227 c54 -73 75
-93 147 -137 81 -50 122 -95 93 -105 -29 -10 -44 -8 -79 9 -75 36 -159 134
-250 289 -35 59 -55 62 -50 8 3 -26 -7 -74 -27 -136 -63 -197 -131 -243 -326
-226 -131 12 -196 55 -253 168 -22 43 -43 93 -47 111 -7 35 -18 33 -30 -5 -4
-17 -3 -22 7 -18 15 6 53 -75 39 -84 -12 -8 -53 -92 -48 -97 2 -3 14 15 25 40
12 24 26 47 31 51 6 3 21 -16 33 -42 17 -35 39 -58 84 -89 54 -36 70 -42 140
-48 73 -7 130 -8 157 -3 23 4 45 -101 50 -231 2 -70 9 -138 16 -149 6 -12 11
-30 11 -41 0 -17 -14 -20 -147 -34 -100 -11 -152 -12 -160 -6 -18 14 -16 53 2
68 12 10 13 16 3 27 -9 11 -9 19 0 33 7 12 8 27 2 46 l-9 29 1 -30 c1 -17 -2
-37 -7 -45 -10 -16 -11 -21 -13 -90 -2 -36 -6 -46 -19 -47 -10 -1 -54 -9 -98
-18 -44 -9 -102 -20 -128 -25 -26 -5 -57 -12 -67 -15 -21 -7 -24 3 -14 43 5
17 11 21 26 16 11 -3 18 -2 15 2 -3 5 9 10 26 10 36 1 184 41 207 55 25 16
-129 -2 -198 -23 -64 -19 -92 -17 -72 7 5 7 38 18 71 25 44 9 57 16 46 22 -9
5 -34 4 -56 -1 l-41 -9 0 67 c0 36 4 91 9 121 22 127 22 129 5 80 -8 -25 -18
-97 -21 -162 l-6 -116 -61 -17 c-33 -10 -85 -28 -115 -41 -29 -13 -58 -24 -64
-24 -9 0 -5 105 7 160 3 14 -1 5 -10 -20 -8 -25 -16 -68 -16 -96 -2 -52 -15
-68 -82 -96 -29 -13 -78 -50 -72 -55 3 -3 30 7 60 22 90 44 88 17 -2 -30 -84
-43 -116 -65 -108 -72 3 -3 17 2 33 10 15 8 52 27 81 42 l54 27 -4 -23 c-2
-17 -26 -37 -84 -74 -45 -27 -96 -62 -113 -77 -18 -16 -36 -28 -41 -28 -18 0
-17 41 2 62 31 35 39 65 32 122 -5 39 -3 56 8 67 8 8 13 20 10 28 -3 9 0 11 7
7 9 -6 10 0 5 20 -5 19 -4 25 5 20 11 -7 15 4 11 38 -1 11 3 15 9 12 6 -4 11
-2 11 4 0 6 12 37 27 68 14 31 26 63 26 71 0 9 8 28 18 43 11 14 19 30 19 35
0 4 18 28 40 53 22 25 42 52 45 61 3 9 18 19 33 22 67 13 205 127 282 232 15
21 -98 -94 -128 -130 -17 -20 -133 -85 -152 -85 -12 0 -13 40 -2 55 4 6 30 25
59 43 28 18 63 47 76 65 14 18 50 59 81 91 59 62 126 162 126 189 0 21 40 33
51 16 5 -8 9 -19 9 -26 0 -6 20 -54 44 -106 35 -76 58 -108 120 -173 66 -68
84 -80 126 -90 57 -13 65 -9 143 66 41 41 97 139 97 173 0 7 7 25 15 40 8 16
24 58 35 94 11 35 22 69 26 74 6 10 54 -45 141 -164z m123 41 c28 -29 61 -70
71 -91 l20 -39 -45 34 c-25 18 -45 38 -46 44 0 6 -9 19 -21 30 -26 23 -53 74
-40 74 5 0 32 -24 61 -52z m-1047 30 c-5 -7 -33 -43 -61 -79 -29 -37 -52 -71
-52 -76 0 -12 -60 -73 -71 -73 -10 0 -1 28 15 49 11 15 31 48 42 71 10 19 116
119 128 120 5 0 4 -6 -1 -12z m833 -45 c15 -27 40 -67 55 -90 16 -23 29 -46
29 -52 0 -6 18 -38 40 -73 23 -34 43 -74 47 -88 3 -14 14 -41 24 -61 29 -58
60 -155 89 -277 23 -97 25 -112 11 -106 -9 4 -50 14 -91 22 -104 20 -120 27
-120 54 0 13 -7 43 -15 68 -9 29 -14 36 -14 20 2 -53 0 -57 -27 -54 -30 3 -20
-12 11 -18 11 -2 21 -11 23 -21 3 -14 0 -16 -21 -8 -18 7 -28 5 -41 -7 -10
-10 -16 -12 -16 -4 0 7 -8 12 -17 12 -14 -1 -11 -6 12 -25 19 -16 45 -25 75
-27 38 -3 46 -7 48 -25 2 -14 -4 -26 -19 -33 -12 -7 -19 -8 -15 -2 11 18 -8
22 -120 27 -81 4 -110 2 -116 -7 -5 -8 -8 1 -8 23 0 19 6 41 13 48 10 10 8 12
-8 9 -19 -3 -20 5 -28 132 -4 74 -12 148 -17 164 -6 16 -10 37 -10 46 0 19 70
70 95 70 9 0 14 4 11 9 -11 17 48 20 67 4 16 -15 17 -15 17 3 1 57 50 -92 71
-215 7 -41 15 -69 17 -63 5 15 -34 213 -55 277 -9 28 -26 68 -39 91 l-24 41
21 78 c11 43 18 84 15 91 -11 30 4 12 30 -33z m-597 -18 c0 -5 -6 1 -14 15 -8
14 -14 30 -14 35 0 6 6 -1 14 -15 8 -14 14 -29 14 -35z m766 -53 c-3 -3 0 -12
6 -21 6 -9 -3 0 -21 19 -17 19 -41 49 -52 65 -16 23 -10 19 25 -14 26 -25 44
-47 42 -49z m-946 49 c-6 -16 -34 -51 -62 -78 -29 -27 -71 -71 -95 -98 l-43
-50 43 60 c63 88 150 195 159 195 5 0 3 -13 -2 -29z m215 -68 c14 -29 24 -53
21 -53 -5 0 -55 95 -55 106 0 12 6 2 34 -53z m481 -122 c3 -6 -4 -15 -15 -21
-20 -11 -21 -10 -10 9 12 23 16 25 25 12z m575 -134 c12 -19 16 -35 11 -40 -5
-5 -7 -16 -4 -25 4 -10 2 -13 -5 -8 -7 4 -12 14 -12 22 0 8 -4 14 -10 14 -5 0
-10 5 -10 12 0 6 -9 22 -21 34 -12 12 -18 27 -14 33 10 17 43 -5 65 -42z
m-209 -112 c1 -11 3 -32 4 -46 1 -14 5 -31 8 -36 9 -14 47 -23 47 -11 0 5 5 6
12 2 8 -5 9 -2 5 10 -4 10 -3 15 3 11 12 -7 14 -35 3 -35 -5 0 -13 -11 -20
-25 -9 -20 -8 -25 2 -25 8 0 15 -8 18 -17 3 -14 7 -11 16 12 7 16 10 38 7 48
-3 13 0 17 12 14 9 -2 16 -9 15 -15 -2 -7 1 -12 7 -12 5 0 7 -7 4 -15 -4 -8
-9 -13 -13 -11 -3 2 -6 -9 -6 -25 0 -16 7 -34 15 -39 30 -19 -14 -20 -65 -2
-49 18 -50 18 -61 75 -7 31 -19 75 -28 97 -9 23 -13 46 -10 52 4 6 2 8 -3 5
-10 -7 -23 22 -23 53 0 22 49 -40 51 -65z m384 25 c-7 -12 -42 -18 -55 -10 -9
6 -6 14 10 30 22 22 24 22 36 5 7 -10 11 -21 9 -25z m-345 -40 c0 -5 -4 -10
-10 -10 -5 0 -10 5 -10 10 0 6 5 10 10 10 6 0 10 -4 10 -10z m-1715 -118 c-8
-9 -25 20 -18 31 3 5 10 2 15 -7 6 -10 7 -20 3 -24z m33 -24 c7 -7 12 -20 12
-30 0 -11 7 -18 19 -18 24 0 34 -25 15 -40 -8 -7 -14 -25 -14 -41 0 -16 -4
-29 -10 -29 -5 0 -10 12 -10 28 -1 26 -1 26 -25 -12 -29 -48 -43 -57 -66 -43
-14 9 -17 21 -13 61 3 28 10 70 16 94 9 36 14 42 37 42 15 0 32 -5 39 -12z
m1717 -114 c14 -9 25 -24 25 -33 0 -10 -3 -12 -8 -5 -4 6 -17 16 -29 23 -13 6
-23 16 -23 21 0 14 7 12 35 -6z m-116 -24 c61 -17 103 -47 99 -73 -2 -12 -9
-21 -16 -19 -7 1 -29 5 -50 8 -20 3 -53 12 -71 20 -19 8 -41 12 -48 10 -26
-10 -43 6 -43 41 l0 36 46 -7 c26 -3 63 -10 83 -16z m-1096 -21 c6 -22 13 -19
-142 -75 -52 -19 -97 -32 -100 -29 -19 20 55 67 164 106 64 23 72 23 78 -2z
m714 -35 c-3 -3 -12 -4 -19 -1 -8 3 -5 6 6 6 11 1 17 -2 13 -5z m-717 -48 c0
-42 -1 -44 -36 -51 -20 -3 -70 -20 -112 -36 -89 -34 -112 -36 -112 -11 0 37
30 60 127 95 87 31 122 44 131 46 1 1 2 -19 2 -43z m1230 19 c0 -14 -4 -25
-10 -25 -5 0 -9 11 -8 25 1 14 6 25 10 25 4 0 8 -11 8 -25z m-738 3 c15 1 28
-2 28 -8 0 -5 -17 -10 -38 -10 -27 0 -39 4 -39 15 0 8 5 11 11 8 6 -4 23 -6
38 -5z m205 6 c-3 -3 -12 -4 -19 -1 -8 3 -5 6 6 6 11 1 17 -2 13 -5z m-337
-23 c0 -5 10 -7 22 -3 13 3 19 1 15 -5 -4 -6 -24 -13 -44 -17 -64 -10 -114
-27 -108 -35 3 -5 42 0 87 10 114 26 325 49 433 47 l90 -1 -75 -9 c-151 -18
-182 -27 -70 -21 225 12 244 12 258 -9 10 -13 20 -17 35 -12 20 6 20 5 -3 -13
-14 -10 -38 -27 -55 -37 -51 -32 -135 -98 -135 -107 0 -18 18 -8 61 32 24 22
62 50 84 61 l40 21 -60 -64 c-33 -34 -73 -77 -90 -95 -31 -32 -46 -84 -25 -84
7 0 10 6 7 13 -6 15 77 120 87 110 3 -4 6 0 6 9 0 45 178 157 258 163 47 3 62
-5 62 -34 0 -12 -3 -12 -12 -3 -14 14 -32 16 -24 3 3 -5 -2 -8 -11 -7 -10 0
-18 -6 -18 -14 -1 -8 -7 -14 -14 -12 -7 1 -10 -1 -7 -6 2 -4 -8 -27 -24 -50
-28 -42 -50 -117 -50 -168 0 -64 79 -164 128 -164 23 0 136 59 152 79 3 3 18
17 33 30 41 37 32 9 -14 -40 -22 -24 -38 -38 -34 -31 11 21 -13 13 -32 -11
-10 -12 -34 -33 -54 -45 -34 -20 -39 -21 -65 -8 -15 8 -45 34 -66 57 -36 39
-40 41 -83 37 -39 -5 -48 -2 -64 18 -19 25 -51 24 -51 -1 0 -7 -13 -15 -30
-18 -21 -5 -30 -12 -30 -27 0 -11 -7 -20 -15 -20 -8 0 -15 -7 -15 -15 0 -32
-100 -93 -162 -98 -9 -1 -14 -5 -12 -9 3 -4 -1 -8 -8 -9 -7 0 -29 -3 -48 -6
-19 -3 -59 -6 -87 -7 -29 0 -53 -4 -53 -8 0 -4 -37 -6 -82 -3 -46 2 -74 2 -63
-1 11 -3 23 -9 27 -12 7 -7 -158 -16 -247 -13 -153 4 -163 6 -187 29 -14 12
-29 22 -35 22 -6 0 -14 7 -17 16 -5 12 -15 15 -39 11 -37 -5 -94 18 -119 49
-10 12 -28 24 -41 28 -14 3 -29 20 -41 46 -13 31 -21 38 -30 31 -7 -6 -16 -8
-19 -4 -11 10 -8 58 4 70 8 8 7 17 -3 32 -12 20 -10 24 12 41 l25 18 -28 7
-28 7 22 24 c12 13 33 24 47 24 13 0 35 9 49 20 14 11 31 20 37 20 6 0 4 -5
-4 -10 -9 -6 -10 -10 -3 -10 7 0 16 6 20 14 8 15 28 23 163 70 115 40 194 66
203 66 21 0 -6 -18 -35 -24 -26 -5 -30 -9 -18 -16 8 -5 24 -10 35 -10 17 0 18
2 5 11 -12 8 -9 10 13 6 15 -2 27 -1 27 4 0 13 88 49 155 64 75 16 85 17 85 6z
m710 -42 c0 -11 -30 -12 -48 0 -9 5 -3 8 17 9 17 0 31 -4 31 -9z m393 -273 c4
-10 1 -13 -8 -9 -8 3 -12 9 -9 14 7 12 11 11 17 -5z m-1940 -98 c11 -7 17 -55
9 -77 -7 -20 -30 45 -30 84 0 17 2 23 5 15 3 -8 11 -18 16 -22z m27 -142 c0
-26 -6 -18 -14 19 -5 22 -4 26 4 15 5 -8 10 -24 10 -34z m145 -31 c28 -13 43
-24 35 -25 -8 -1 1 -8 20 -15 43 -17 63 -18 55 -5 -4 6 -10 8 -15 5 -5 -3 -12
0 -16 6 -10 16 65 4 80 -12 8 -9 7 -10 -6 -6 -21 7 -24 -3 -6 -21 28 -28 -4
-24 -110 16 -28 11 -50 16 -46 11 8 -13 80 -49 98 -49 26 0 87 -33 75 -41 -12
-7 -68 8 -133 36 -21 9 -40 14 -42 12 -3 -2 9 -10 26 -17 16 -7 30 -16 30 -20
0 -4 21 -17 46 -29 39 -19 44 -24 33 -37 -7 -8 -19 -12 -28 -9 -9 4 -5 -4 8
-16 22 -21 23 -23 6 -29 -17 -6 -17 -7 -2 -13 24 -9 47 2 40 20 -5 13 -3 13
15 4 35 -19 35 -31 0 -43 -18 -7 -36 -11 -40 -10 -4 1 -25 4 -48 7 -87 11
-128 27 -169 66 -33 32 -39 44 -31 57 8 14 9 14 10 2 0 -22 56 -87 66 -77 5 4
3 17 -4 27 -7 11 -8 20 -3 20 5 0 7 10 4 23 -5 18 -3 20 8 10 7 -7 24 -13 38
-13 22 0 23 2 9 18 -16 18 -32 52 -30 63 1 4 -14 15 -33 25 -19 10 -35 22 -35
26 0 11 12 10 30 -2 22 -14 32 20 12 43 -20 22 -8 21 53 -8z m1230 -24 c5 -9
-2 -12 -75 -31 -19 -4 -52 -13 -72 -18 -21 -6 -55 -6 -80 -1 -30 5 -46 4 -53
-4 -5 -7 -23 -13 -40 -14 -16 -2 -54 -6 -83 -11 -40 -6 -57 -5 -72 5 -32 23
-24 28 40 27 33 -1 58 1 56 5 -2 3 8 7 22 7 24 1 89 10 252 33 79 12 98 12
105 2z m-1368 -53 c-3 -8 -6 -5 -6 6 -1 11 2 17 5 13 3 -3 4 -12 1 -19z m440
-14 c-3 -3 -12 -4 -19 -1 -8 3 -5 6 6 6 11 1 17 -2 13 -5z m307 -39 c-4 -8
-12 -15 -20 -15 -17 0 -18 17 -1 23 22 9 27 7 21 -8z"/>
<path d="M2505 6056 c-117 -23 -175 -58 -175 -107 0 -37 12 -43 95 -47 163 -9
188 -7 248 20 37 18 57 33 57 44 0 31 -47 80 -88 92 -46 14 -57 14 -137 -2z
m155 -21 c30 -16 50 -43 50 -68 0 -30 -149 -72 -204 -56 -17 5 -59 9 -94 9
-66 0 -86 15 -66 49 36 59 244 102 314 66z"/>
<path d="M2035 5972 c-75 -8 -262 -91 -300 -132 -26 -29 -12 -50 32 -51 79 -2
111 3 198 32 130 43 200 98 168 130 -14 14 -64 25 -98 21z m63 -18 c52 -14 0
-75 -89 -103 -19 -5 -59 -19 -89 -30 -57 -21 -174 -28 -184 -12 -15 24 132
107 238 136 57 15 90 18 124 9z"/>
<path d="M2994 5934 c-16 -24 -16 -28 4 -69 17 -35 31 -48 77 -69 98 -45 255
-60 287 -28 22 22 -19 79 -93 128 -28 20 -204 64 -251 64 -4 0 -15 -12 -24
-26z m125 -10 c58 -10 112 -25 137 -40 53 -30 109 -93 96 -106 -6 -6 -46 -9
-99 -6 -119 7 -216 46 -243 98 -13 27 -15 39 -6 53 6 9 13 17 15 17 2 0 47 -7
100 -16z"/>
<path d="M1429 5744 c-22 -12 -21 -13 13 -7 40 6 88 -16 88 -40 0 -13 -70 -87
-83 -87 -3 0 -27 -13 -52 -29 -40 -25 -160 -59 -171 -48 -3 3 -2 16 2 30 6 25
54 76 119 125 l30 23 -30 -15 c-46 -23 -123 -98 -130 -129 -10 -37 1 -61 23
-52 9 4 39 11 65 16 78 13 237 127 237 170 0 39 -70 66 -111 43z"/>
<path d="M3637 5710 c-42 -13 -57 -29 -57 -64 0 -62 103 -186 174 -210 20 -7
54 -10 77 -7 38 5 43 10 56 46 11 32 12 48 3 78 -28 97 -166 182 -253 157z
m92 -25 c95 -33 158 -113 148 -188 -3 -21 -8 -41 -11 -45 -11 -10 -109 -1
-136 13 -42 22 -118 112 -131 156 -17 54 0 72 72 78 9 0 35 -6 58 -14z"/>
<path d="M4025 5550 c10 -11 20 -20 23 -20 3 0 -3 9 -13 20 -10 11 -20 20 -23
20 -3 0 3 -9 13 -20z"/>
<path d="M1336 5427 c-95 -96 -118 -126 -159 -207 -56 -110 -44 -98 28 26 37
65 77 114 153 191 57 57 101 103 97 103 -4 0 -57 -51 -119 -113z"/>
<path d="M913 5318 c-77 -74 -123 -148 -123 -198 0 -63 38 -77 111 -40 42 22
110 85 128 118 6 11 -18 -9 -52 -43 -93 -93 -177 -111 -177 -38 0 36 43 113
95 171 72 79 125 101 158 64 21 -23 22 -54 2 -92 -9 -17 -13 -30 -11 -30 11 0
36 61 36 88 0 37 -28 62 -69 62 -26 0 -45 -12 -98 -62z"/>
<path d="M3916 5246 c-32 -32 -33 -66 -3 -148 27 -75 90 -161 134 -182 67 -34
110 20 100 124 -9 108 -87 210 -169 225 -31 6 -41 3 -62 -19z m124 -27 c50
-38 82 -103 88 -179 6 -85 -6 -110 -53 -110 -28 0 -41 9 -79 53 -45 50 -82
129 -93 193 -12 71 66 95 137 43z"/>
<path d="M1096 5072 c-33 -65 -52 -137 -71 -266 -18 -126 -12 -194 20 -251 33
-58 115 -136 115 -110 0 2 -20 24 -44 49 -59 59 -78 98 -84 176 -8 114 33 324
82 418 9 18 14 32 11 32 -2 0 -16 -22 -29 -48z"/>
<path d="M4250 5051 c0 -19 12 -41 20 -36 10 6 1 45 -11 45 -5 0 -9 -4 -9 -9z"/>
<path d="M748 4789 c-41 -21 -113 -105 -134 -156 -20 -46 -17 -90 7 -140 38
-79 110 -92 193 -35 40 28 49 43 73 132 28 103 9 179 -53 205 -44 18 -41 19
-86 -6z m86 -10 c24 -11 56 -71 56 -105 0 -9 -10 -49 -21 -89 -18 -60 -29 -79
-59 -104 -48 -38 -101 -49 -135 -27 -67 44 -73 151 -12 234 71 95 112 117 171
91z"/>
<path d="M3932 4750 c-41 -10 -88 -53 -97 -89 -3 -14 -13 -50 -22 -78 l-16
-53 34 -56 c41 -68 114 -135 136 -127 11 4 14 2 9 -5 -5 -8 3 -12 23 -12 17 0
31 5 31 10 0 6 10 10 22 10 35 0 105 85 118 142 5 27 8 60 5 74 -3 13 -7 35
-10 48 -7 33 -71 94 -130 122 -54 26 -54 26 -103 14z m93 -30 c135 -65 172
-198 83 -303 -26 -30 -42 -40 -75 -44 -76 -10 -125 17 -185 104 l-31 46 19 76
c24 99 58 134 134 139 8 1 33 -7 55 -18z"/>
<path d="M3745 4710 c-3 -5 -1 -10 4 -10 6 0 11 5 11 10 0 6 -2 10 -4 10 -3 0
-8 -4 -11 -10z"/>
<path d="M950 3480 c0 -5 5 -10 11 -10 5 0 7 5 4 10 -3 6 -8 10 -11 10 -2 0
-4 -4 -4 -10z"/>
<path d="M966 3445 c4 -8 12 -15 20 -15 20 0 17 7 -6 20 -16 9 -18 8 -14 -5z"/>
<path d="M1520 5175 c0 -9 5 -15 11 -13 6 2 11 8 11 13 0 5 -5 11 -11 13 -6 2
-11 -4 -11 -13z"/>
<path d="M1895 5180 c-4 -6 7 -10 27 -9 27 0 30 2 13 9 -27 12 -33 12 -40 0z"/>
<path d="M1523 5100 c-13 -5 -23 -12 -23 -15 0 -10 27 -5 46 10 21 16 11 18
-23 5z"/>
<path d="M1615 5089 c-10 -15 3 -25 16 -12 7 7 7 13 1 17 -6 3 -14 1 -17 -5z"/>
<path d="M1650 5074 c0 -17 22 -14 28 4 2 7 -3 12 -12 12 -9 0 -16 -7 -16 -16z"/>
<path d="M4278 5273 c7 -3 16 -2 19 1 4 3 -2 6 -13 5 -11 0 -14 -3 -6 -6z"/>
<path d="M3040 4800 c0 -5 5 -10 11 -10 5 0 7 5 4 10 -3 6 -8 10 -11 10 -2 0
-4 -4 -4 -10z"/>
<path d="M2760 4779 c0 -5 5 -7 10 -4 6 3 10 8 10 11 0 2 -4 4 -10 4 -5 0 -10
-5 -10 -11z"/>
<path d="M2017 4756 c-4 -10 -1 -13 9 -9 15 6 19 23 5 23 -5 0 -11 -7 -14 -14z"/>
<path d="M2128 4753 c6 -2 18 -2 25 0 6 3 1 5 -13 5 -14 0 -19 -2 -12 -5z"/>
<path d="M2088 4613 c7 -3 16 -2 19 1 4 3 -2 6 -13 5 -11 0 -14 -3 -6 -6z"/>
<path d="M1617 4804 c-2 -3 -3 -14 0 -25 6 -22 43 -26 43 -4 0 15 -34 38 -43
29z"/>
<path d="M1197 4173 c-4 -3 -7 -20 -7 -36 0 -38 9 -31 14 11 4 34 3 36 -7 25z"/>
<path d="M1123 4148 c-4 -7 -8 -31 -10 -53 -1 -22 -2 -41 -3 -42 -2 -2 -3 -6
-5 -10 -1 -5 -5 -16 -9 -25 -10 -22 -4 -64 9 -61 6 1 12 13 13 25 2 13 9 29
14 36 6 7 12 41 14 77 2 62 -5 80 -23 53z"/>
<path d="M3083 3955 c-62 -29 -113 -58 -113 -64 0 -6 54 17 120 50 110 55 133
70 113 69 -5 -1 -59 -25 -120 -55z"/>
<path d="M1680 3930 c0 -5 13 -16 30 -25 46 -24 223 -86 228 -80 8 7 6 8 -93
45 -49 18 -103 42 -120 52 -34 20 -45 22 -45 8z"/>
<path d="M3175 3848 c-88 -32 -162 -108 -201 -210 -33 -82 -29 -145 12 -217
68 -118 157 -162 300 -146 71 7 146 51 198 114 28 34 27 34 -15 -6 -24 -23
-69 -54 -99 -70 -74 -38 -180 -39 -255 -2 -97 47 -171 186 -146 277 52 196
205 296 370 242 61 -20 131 -82 163 -144 11 -22 24 -72 29 -110 l8 -71 -3 80
c-4 121 -52 194 -161 246 -65 31 -142 38 -200 17z"/>
<path d="M1685 3766 c-77 -24 -129 -63 -174 -131 -8 -11 6 1 30 27 65 69 128
98 214 98 86 0 134 -21 192 -81 53 -57 81 -111 93 -185 l9 -59 -4 62 c-6 79
-32 134 -93 198 -73 76 -170 102 -267 71z"/>
<path d="M3197 3738 c-24 -6 -51 -26 -77 -55 -70 -80 -76 -154 -19 -232 42
-59 83 -81 149 -81 92 1 179 57 196 127 9 33 -11 138 -30 168 -45 69 -132 98
-219 73z"/>
<path d="M1707 3666 c-122 -33 -181 -170 -122 -286 28 -56 39 -63 112 -79 108
-22 209 38 233 140 15 61 8 103 -27 157 -43 66 -114 90 -196 68z"/>
<path d="M2455 3632 c-87 -16 -158 -65 -148 -103 7 -25 54 -59 106 -74 37 -11
42 -16 45 -44 2 -17 8 -29 13 -26 5 4 7 16 3 29 -5 20 1 25 41 41 85 32 134
92 107 131 -20 30 -113 56 -167 46z m-6 -68 c-14 -17 -41 -18 -57 -2 -20 20
-14 35 21 45 27 8 33 6 40 -10 4 -11 3 -25 -4 -33z"/>
<path d="M1460 3525 c-28 -101 9 -211 94 -277 46 -35 53 -45 43 -58 -11 -13
-10 -13 5 -1 14 11 27 11 61 3 24 -6 68 -9 99 -7 53 4 128 27 128 40 0 3 -5 3
-12 -1 -6 -4 -36 -13 -66 -20 -103 -24 -222 13 -291 92 -51 57 -74 165 -50
233 6 18 9 34 7 37 -3 2 -11 -16 -18 -41z"/>
<path d="M3521 3484 c0 -11 3 -14 6 -6 3 7 2 16 -1 19 -3 4 -6 -2 -5 -13z"/>
<path d="M2463 3296 c-2 -101 -44 -136 -162 -136 -61 0 -82 4 -115 24 -23 13
-48 36 -56 50 -7 14 -17 26 -22 26 -36 0 50 -94 107 -116 50 -18 45 -3 70
-216 33 -275 131 -561 208 -606 26 -16 30 -16 64 3 24 13 45 36 60 65 40 79
123 554 123 707 0 60 2 64 40 100 42 38 80 92 80 112 0 19 -20 2 -20 -17 -1
-24 -49 -76 -89 -97 -69 -35 -165 -12 -238 58 -24 23 -33 40 -33 64 0 55 -15
37 -17 -21z m-114 -591 c0 -5 -4 -3 -9 5 -5 8 -9 22 -9 30 0 16 17 -16 18 -35z
m64 -70 c15 -13 27 -29 27 -34 0 -6 18 -14 40 -17 22 -4 40 -10 40 -15 0 -12
37 -12 44 0 4 5 0 12 -6 15 -7 3 -1 4 15 1 20 -4 27 -1 27 10 0 9 5 13 10 10
6 -3 10 -17 10 -30 0 -29 17 -42 23 -18 2 10 3 5 0 -12 -2 -16 -12 -38 -22
-50 -10 -11 -21 -29 -25 -41 -6 -21 -69 -50 -86 -39 -6 4 -17 2 -25 -5 -9 -8
-15 -8 -20 0 -3 6 -10 8 -15 5 -10 -6 -47 81 -71 167 -11 37 -19 70 -19 73 0
13 27 2 53 -20z m97 15 c0 -5 -4 -10 -10 -10 -5 0 -10 5 -10 10 0 6 5 10 10
10 6 0 10 -4 10 -10z m147 -52 c-3 -8 -6 -5 -6 6 -1 11 2 17 5 13 3 -3 4 -12
1 -19z"/>
<path d="M1979 3303 c-13 -16 -12 -17 4 -4 9 7 17 15 17 17 0 8 -8 3 -21 -13z"/>
<path d="M3424 3310 c-12 -5 -25 -14 -29 -20 -4 -7 7 -4 24 4 17 9 31 19 31
21 0 6 1 6 -26 -5z"/>
<path d="M1924 3258 l-29 -33 33 29 c30 28 37 36 29 36 -2 0 -16 -15 -33 -32z"/>
<path d="M1473 3198 c-11 -13 -24 -30 -28 -38 -8 -16 -6 -14 34 33 14 15 22
27 19 27 -2 0 -14 -10 -25 -22z"/>
<path d="M1509 3193 l-24 -28 30 25 c17 14 32 26 34 28 2 1 0 2 -6 2 -5 0 -20
-12 -34 -27z"/>
<path d="M1549 3193 c-13 -15 -12 -15 9 -4 23 12 28 21 13 21 -5 0 -15 -7 -22
-17z"/>
<path d="M3439 2913 c-13 -15 -12 -15 9 -4 23 12 28 21 13 21 -5 0 -15 -7 -22
-17z"/>
<path d="M4510 4074 c-11 -13 -10 -19 7 -36 l21 -20 12 21 c9 17 9 26 -1 37
-15 18 -23 18 -39 -2z m32 -16 c-9 -9 -15 -9 -24 0 -9 9 -7 12 12 12 19 0 21
-3 12 -12z"/>
<path d="M4424 4035 c-7 -18 2 -45 15 -45 14 0 33 38 26 50 -9 15 -35 12 -41
-5z m26 -5 c0 -5 -5 -10 -11 -10 -5 0 -7 5 -4 10 3 6 8 10 11 10 2 0 4 -4 4
-10z"/>
<path d="M1125 2764 c-27 -29 -38 -74 -23 -91 14 -17 79 -17 102 0 14 10 17
22 13 49 -6 47 -12 55 -43 61 -20 3 -33 -2 -49 -19z"/>
<path d="M1322 2668 c-28 -51 -22 -62 8 -13 13 21 26 32 33 28 7 -4 6 1 -2 10
-7 9 -14 17 -15 17 0 0 -11 -19 -24 -42z"/>
<path d="M856 2648 c-33 -47 -12 -117 30 -102 53 19 72 75 36 107 -25 23 -48
21 -66 -5z m66 -60 c-8 -8 -9 -4 -5 13 4 13 8 18 11 10 2 -7 -1 -18 -6 -23z"/>
<path d="M1270 2520 c8 -5 31 -9 50 -9 32 1 33 2 10 9 -14 4 -36 8 -50 9 -20
1 -22 -1 -10 -9z"/>
<path d="M2116 2195 c-9 -26 -7 -32 5 -12 6 10 9 21 6 23 -2 3 -7 -2 -11 -11z"/>
<path d="M2096 2134 c-4 -14 -5 -28 -3 -31 3 -2 8 8 11 23 4 14 5 28 3 31 -3
2 -8 -8 -11 -23z"/>
<path d="M1888 2078 c-24 -56 -17 -58 10 -3 12 25 18 45 14 45 -4 0 -15 -19
-24 -42z"/>
<path d="M2214 1789 c-3 -5 6 -9 20 -9 31 0 34 6 6 13 -11 3 -23 1 -26 -4z"/>
<path d="M1540 1553 c0 -20 3 -33 6 -30 11 10 13 67 3 67 -5 0 -9 -16 -9 -37z"/>
<path d="M1440 1709 c0 -5 5 -7 10 -4 6 3 10 8 10 11 0 2 -4 4 -10 4 -5 0 -10
-5 -10 -11z"/>
<path d="M2856 1505 c-106 -76 -145 -112 -122 -112 9 0 16 4 16 9 0 5 5 6 12
2 7 -4 8 -3 4 4 -4 7 -2 12 3 12 6 0 39 23 73 50 35 28 80 58 100 67 21 9 38
20 38 25 0 21 -43 1 -124 -57z"/>
<path d="M1918 1503 c-23 -12 -23 -12 5 -13 16 0 35 6 43 14 12 13 12 15 -6
13 -11 -1 -30 -7 -42 -14z"/>
<path d="M2293 1428 c-6 -10 27 -9 52 2 16 7 13 8 -13 7 -19 -1 -36 -5 -39 -9z"/>
<path d="M2695 1358 c4 -33 4 -34 15 -18 14 22 12 40 -4 40 -8 0 -12 -9 -11
-22z"/>
<path d="M4603 5828 c-2 -16 1 -18 10 -9 7 7 8 14 1 21 -6 6 -10 2 -11 -12z"/>
<path d="M743 5676 c3 -8 1 -16 -5 -18 -8 -3 -8 -13 -1 -33 l10 -30 14 30 c18
41 19 42 29 25 7 -11 10 -12 10 -2 0 7 -6 20 -14 28 -19 19 -50 19 -43 0z"/>
<path d="M111 5199 c-6 -18 -11 -37 -10 -43 0 -6 7 7 15 28 8 22 12 41 10 43
-2 2 -9 -10 -15 -28z"/>
<path d="M548 5076 c-4 -22 -6 -41 -5 -42 1 -1 11 8 22 19 11 11 15 17 8 13
-7 -4 -13 4 -15 21 -3 25 -4 23 -10 -11z"/>
<path d="M61 4974 c0 -11 3 -14 6 -6 3 7 2 16 -1 19 -3 4 -6 -2 -5 -13z"/>
<path d="M52 4920 c0 -19 2 -27 5 -17 2 9 2 25 0 35 -3 9 -5 1 -5 -18z"/>
<path d="M41 4824 c0 -11 3 -14 6 -6 3 7 2 16 -1 19 -3 4 -6 -2 -5 -13z"/>
<path d="M33 4745 c0 -27 2 -38 4 -22 2 15 2 37 0 50 -2 12 -4 0 -4 -28z"/>
<path d="M23 4640 c0 -30 2 -43 4 -27 2 15 2 39 0 55 -2 15 -4 2 -4 -28z"/>
<path d="M12 4550 c0 -14 2 -19 5 -12 2 6 2 18 0 25 -3 6 -5 1 -5 -13z"/>
<path d="M17 4474 c6 -68 11 -77 12 -24 0 25 -3 51 -8 59 -5 8 -7 -5 -4 -35z"/>
<path d="M435 4460 c-3 -11 -11 -20 -16 -20 -5 0 -9 -13 -9 -30 0 -36 24 -41
41 -9 8 15 8 24 0 32 -6 6 -11 16 -11 22 0 5 5 3 10 -5 8 -12 10 -11 10 8 0
27 -16 29 -25 2z"/>
<path d="M23 4325 c0 -22 2 -30 4 -17 2 12 2 30 0 40 -3 9 -5 -1 -4 -23z"/>
<path d="M32 4260 c0 -14 2 -19 5 -12 2 6 2 18 0 25 -3 6 -5 1 -5 -13z"/>
<path d="M406 4021 c-3 -5 1 -11 9 -15 8 -3 15 -1 15 4 0 13 -18 22 -24 11z"/>
<path d="M4532 3511 c-23 -19 -29 -41 -12 -41 6 0 10 4 10 10 0 5 7 7 15 4 11
-5 14 0 13 20 -1 14 -3 26 -4 26 0 0 -11 -8 -22 -19z"/>
<path d="M3764 2996 c-38 -38 -44 -74 -16 -99 26 -23 55 -21 80 6 30 31 28 71
-3 95 -17 14 -21 22 -13 25 10 4 10 6 0 6 -8 1 -29 -14 -48 -33z"/>
<path d="M4030 2948 c-21 -35 -26 -73 -10 -83 18 -11 62 8 70 31 11 29 -6 84
-26 84 -8 0 -23 -15 -34 -32z"/>
<path d="M3725 2740 c-4 -6 -3 -16 3 -22 6 -6 12 -6 17 2 4 6 3 16 -3 22 -6 6
-12 6 -17 -2z"/>
<path d="M3970 2740 c-9 -6 -10 -10 -3 -10 6 0 15 5 18 10 8 12 4 12 -15 0z"/>
<path d="M3378 2713 c-27 -14 -46 -28 -45 -30 5 -4 97 47 97 53 0 6 -1 5 -52
-23z"/>
<path d="M3835 2720 c-54 -5 -89 -16 -154 -49 -45 -23 -81 -44 -78 -47 2 -3
35 11 73 30 38 19 85 37 105 41 34 5 37 4 43 -26 5 -28 19 -44 98 -111 14 -13
30 -34 34 -48 5 -19 -4 -14 -40 27 -52 58 -106 85 -106 54 0 -11 -7 -21 -15
-25 -8 -3 -15 -17 -15 -32 0 -49 149 -304 209 -358 15 -14 54 -23 139 -34 66
-8 126 -12 135 -9 11 4 17 17 16 34 0 25 -1 26 -9 8 -5 -11 -9 -15 -9 -9 -1 7
-19 8 -53 3 -29 -3 -61 -2 -71 3 -9 5 -22 6 -28 3 -5 -4 -16 -1 -24 5 -9 7
-26 9 -41 6 -17 -5 -23 -3 -19 4 6 10 -7 14 -32 11 -16 -2 -54 49 -46 62 4 6
1 7 -7 2 -10 -6 -12 -4 -7 8 4 10 2 16 -6 14 -7 -1 -11 8 -9 23 2 19 0 22 -8
10 -5 -8 -10 -10 -10 -5 0 6 -15 35 -34 64 -19 29 -45 78 -57 108 -22 54 -22
56 -4 69 32 24 61 16 99 -26 38 -42 46 -63 21 -54 -8 4 -15 1 -15 -5 0 -20 33
-80 42 -75 5 3 4 12 -3 20 -6 8 -9 17 -6 20 3 3 10 -4 17 -15 6 -12 19 -21 30
-21 10 0 26 -10 34 -22 9 -12 16 -18 16 -13 0 6 -9 21 -20 35 -11 14 -20 29
-20 33 0 14 39 -13 44 -31 3 -9 16 -22 28 -27 27 -12 91 -103 82 -116 -7 -12
-104 0 -123 15 -12 9 -12 7 -2 -12 11 -21 19 -23 70 -21 32 1 63 -1 69 -5 26
-16 2 46 -42 109 -11 17 -21 35 -21 40 -1 6 -7 9 -14 7 -7 -1 -11 3 -9 10 3 7
-1 19 -9 26 -7 8 -11 17 -8 22 3 5 -4 11 -15 15 -12 4 -32 24 -47 46 -14 21
-27 39 -30 39 -8 0 26 -56 46 -74 30 -28 26 -41 -5 -17 -15 12 -51 70 -80 129
-57 113 -63 132 -39 112 13 -11 14 -10 9 3 -4 11 2 17 23 20 46 7 -10 5 -92
-3z m58 -83 l28 -62 -36 35 c-40 38 -67 79 -43 64 11 -6 11 -5 -1 9 -12 15
-11 17 5 17 13 -1 27 -19 47 -63z m344 -483 c-3 -3 -12 -4 -19 -1 -8 3 -5 6 6
6 11 1 17 -2 13 -5z"/>
<path d="M3250 2650 c-8 -5 -10 -10 -5 -10 6 0 17 5 25 10 8 5 11 10 5 10 -5
0 -17 -5 -25 -10z"/>
<path d="M3995 2316 c10 -14 19 -26 22 -26 7 0 -17 39 -28 46 -6 3 -3 -5 6
-20z"/>
<path d="M3966 1543 c-4 -71 -9 -137 -11 -148 -3 -11 2 -6 9 10 9 18 15 62 15
111 0 45 3 98 6 118 4 21 3 36 -3 36 -5 0 -12 -56 -16 -127z"/>
<path d="M3518 1584 c-37 -20 -61 -68 -53 -105 8 -37 18 -42 61 -34 28 5 39
13 50 41 10 24 12 40 5 53 -6 10 -7 21 -4 25 3 3 -5 7 -18 7 -17 1 -19 3 -6 6
9 2 15 9 12 14 -8 12 -15 11 -47 -7z"/>
<path d="M3817 1526 c-45 -28 -71 -61 -63 -81 3 -8 1 -15 -4 -15 -9 0 -6 -32
5 -50 3 -6 17 -10 31 -10 14 0 23 4 20 9 -3 5 0 9 7 8 37 -1 57 5 57 17 0 7 8
20 17 27 15 12 16 12 8 -1 -7 -13 -6 -13 6 -1 11 10 11 15 2 18 -7 3 -13 10
-13 17 0 8 -9 25 -21 40 -17 22 -18 26 -4 26 9 0 13 5 10 10 -9 14 -15 13 -58
-14z"/>
<path d="M3355 1380 c-3 -5 1 -10 9 -10 9 0 16 5 16 10 0 6 -4 10 -9 10 -6 0
-13 -4 -16 -10z"/>
<path d="M3800 1296 c0 -9 5 -16 10 -16 6 0 10 4 10 9 0 6 -4 13 -10 16 -5 3
-10 -1 -10 -9z"/>
<path d="M3753 1271 c1 -22 12 -28 21 -12 3 5 -1 14 -9 21 -11 9 -14 8 -12 -9z"/>
<path d="M1730 531 c0 -13 15 -42 32 -64 18 -23 43 -70 55 -106 16 -46 23 -57
23 -39 0 40 -31 115 -73 178 -30 44 -37 50 -37 31z"/>
<path d="M1380 520 c-9 -6 -10 -10 -3 -10 6 0 15 5 18 10 8 12 4 12 -15 0z"/>
<path d="M1286 385 c-3 -8 -8 -44 -12 -78 -16 -153 83 -293 152 -214 11 12 28
34 37 50 10 15 21 27 25 27 4 0 5 -29 4 -65 -2 -42 1 -71 8 -80 40 -48 185 21
255 119 42 60 40 75 -12 76 -12 0 -27 8 -32 18 -10 16 -10 16 -11 0 0 -10 -7
-18 -15 -18 -8 0 -15 7 -15 15 0 17 -16 21 -22 5 -2 -6 -22 -6 -58 1 -30 5
-77 12 -105 16 -35 4 -70 19 -117 49 -64 41 -73 51 -69 82 3 17 -6 15 -13 -3z"/>
</g>
</svg>
